%TF.GenerationSoftware,KiCad,Pcbnew,10.0.4*%
%TF.CreationDate,2026-07-03T11:56:50-04:00*%
%TF.ProjectId,heart-pcb,68656172-742d-4706-9362-2e6b69636164,rev?*%
%TF.SameCoordinates,Original*%
%TF.FileFunction,Legend,Top*%
%TF.FilePolarity,Positive*%
%FSLAX46Y46*%
G04 Gerber Fmt 4.6, Leading zero omitted, Abs format (unit mm)*
G04 Created by KiCad (PCBNEW 10.0.4) date 2026-07-03 11:56:50*
%MOMM*%
%LPD*%
G01*
G04 APERTURE LIST*
%ADD10C,0.150000*%
%ADD11C,0.300000*%
%ADD12C,0.400000*%
%ADD13C,0.100000*%
%ADD14C,0.120000*%
G04 APERTURE END LIST*
D10*
X177002200Y-166007200D02*
X285002200Y-166007200D01*
X285002200Y-198007200D01*
X177002200Y-198007200D01*
X177002200Y-166007200D01*
X10000000Y-10000000D02*
X287002200Y-10000000D01*
X287002200Y-200007200D01*
X10000000Y-200007200D01*
X10000000Y-10000000D01*
X12000000Y-12000000D02*
X285002200Y-12000000D01*
X285002200Y-198007200D01*
X12000000Y-198007200D01*
X12000000Y-12000000D01*
X60000000Y-12000000D02*
X60000000Y-10000000D01*
X110000000Y-12000000D02*
X110000000Y-10000000D01*
X160000000Y-12000000D02*
X160000000Y-10000000D01*
X210000000Y-12000000D02*
X210000000Y-10000000D01*
X260000000Y-12000000D02*
X260000000Y-10000000D01*
X36089160Y-11593604D02*
X35346303Y-11593604D01*
X35717731Y-11593604D02*
X35717731Y-10293604D01*
X35717731Y-10293604D02*
X35593922Y-10479319D01*
X35593922Y-10479319D02*
X35470112Y-10603128D01*
X35470112Y-10603128D02*
X35346303Y-10665033D01*
X85346303Y-10417414D02*
X85408207Y-10355509D01*
X85408207Y-10355509D02*
X85532017Y-10293604D01*
X85532017Y-10293604D02*
X85841541Y-10293604D01*
X85841541Y-10293604D02*
X85965350Y-10355509D01*
X85965350Y-10355509D02*
X86027255Y-10417414D01*
X86027255Y-10417414D02*
X86089160Y-10541223D01*
X86089160Y-10541223D02*
X86089160Y-10665033D01*
X86089160Y-10665033D02*
X86027255Y-10850747D01*
X86027255Y-10850747D02*
X85284398Y-11593604D01*
X85284398Y-11593604D02*
X86089160Y-11593604D01*
X135284398Y-10293604D02*
X136089160Y-10293604D01*
X136089160Y-10293604D02*
X135655826Y-10788842D01*
X135655826Y-10788842D02*
X135841541Y-10788842D01*
X135841541Y-10788842D02*
X135965350Y-10850747D01*
X135965350Y-10850747D02*
X136027255Y-10912652D01*
X136027255Y-10912652D02*
X136089160Y-11036461D01*
X136089160Y-11036461D02*
X136089160Y-11345985D01*
X136089160Y-11345985D02*
X136027255Y-11469795D01*
X136027255Y-11469795D02*
X135965350Y-11531700D01*
X135965350Y-11531700D02*
X135841541Y-11593604D01*
X135841541Y-11593604D02*
X135470112Y-11593604D01*
X135470112Y-11593604D02*
X135346303Y-11531700D01*
X135346303Y-11531700D02*
X135284398Y-11469795D01*
X185965350Y-10726938D02*
X185965350Y-11593604D01*
X185655826Y-10231700D02*
X185346303Y-11160271D01*
X185346303Y-11160271D02*
X186151064Y-11160271D01*
X236027255Y-10293604D02*
X235408207Y-10293604D01*
X235408207Y-10293604D02*
X235346303Y-10912652D01*
X235346303Y-10912652D02*
X235408207Y-10850747D01*
X235408207Y-10850747D02*
X235532017Y-10788842D01*
X235532017Y-10788842D02*
X235841541Y-10788842D01*
X235841541Y-10788842D02*
X235965350Y-10850747D01*
X235965350Y-10850747D02*
X236027255Y-10912652D01*
X236027255Y-10912652D02*
X236089160Y-11036461D01*
X236089160Y-11036461D02*
X236089160Y-11345985D01*
X236089160Y-11345985D02*
X236027255Y-11469795D01*
X236027255Y-11469795D02*
X235965350Y-11531700D01*
X235965350Y-11531700D02*
X235841541Y-11593604D01*
X235841541Y-11593604D02*
X235532017Y-11593604D01*
X235532017Y-11593604D02*
X235408207Y-11531700D01*
X235408207Y-11531700D02*
X235346303Y-11469795D01*
X285965350Y-10293604D02*
X285717731Y-10293604D01*
X285717731Y-10293604D02*
X285593922Y-10355509D01*
X285593922Y-10355509D02*
X285532017Y-10417414D01*
X285532017Y-10417414D02*
X285408207Y-10603128D01*
X285408207Y-10603128D02*
X285346303Y-10850747D01*
X285346303Y-10850747D02*
X285346303Y-11345985D01*
X285346303Y-11345985D02*
X285408207Y-11469795D01*
X285408207Y-11469795D02*
X285470112Y-11531700D01*
X285470112Y-11531700D02*
X285593922Y-11593604D01*
X285593922Y-11593604D02*
X285841541Y-11593604D01*
X285841541Y-11593604D02*
X285965350Y-11531700D01*
X285965350Y-11531700D02*
X286027255Y-11469795D01*
X286027255Y-11469795D02*
X286089160Y-11345985D01*
X286089160Y-11345985D02*
X286089160Y-11036461D01*
X286089160Y-11036461D02*
X286027255Y-10912652D01*
X286027255Y-10912652D02*
X285965350Y-10850747D01*
X285965350Y-10850747D02*
X285841541Y-10788842D01*
X285841541Y-10788842D02*
X285593922Y-10788842D01*
X285593922Y-10788842D02*
X285470112Y-10850747D01*
X285470112Y-10850747D02*
X285408207Y-10912652D01*
X285408207Y-10912652D02*
X285346303Y-11036461D01*
X60000000Y-198007200D02*
X60000000Y-200007200D01*
X110000000Y-198007200D02*
X110000000Y-200007200D01*
X160000000Y-198007200D02*
X160000000Y-200007200D01*
X210000000Y-198007200D02*
X210000000Y-200007200D01*
X260000000Y-198007200D02*
X260000000Y-200007200D01*
X36089160Y-199600804D02*
X35346303Y-199600804D01*
X35717731Y-199600804D02*
X35717731Y-198300804D01*
X35717731Y-198300804D02*
X35593922Y-198486519D01*
X35593922Y-198486519D02*
X35470112Y-198610328D01*
X35470112Y-198610328D02*
X35346303Y-198672233D01*
X85346303Y-198424614D02*
X85408207Y-198362709D01*
X85408207Y-198362709D02*
X85532017Y-198300804D01*
X85532017Y-198300804D02*
X85841541Y-198300804D01*
X85841541Y-198300804D02*
X85965350Y-198362709D01*
X85965350Y-198362709D02*
X86027255Y-198424614D01*
X86027255Y-198424614D02*
X86089160Y-198548423D01*
X86089160Y-198548423D02*
X86089160Y-198672233D01*
X86089160Y-198672233D02*
X86027255Y-198857947D01*
X86027255Y-198857947D02*
X85284398Y-199600804D01*
X85284398Y-199600804D02*
X86089160Y-199600804D01*
X135284398Y-198300804D02*
X136089160Y-198300804D01*
X136089160Y-198300804D02*
X135655826Y-198796042D01*
X135655826Y-198796042D02*
X135841541Y-198796042D01*
X135841541Y-198796042D02*
X135965350Y-198857947D01*
X135965350Y-198857947D02*
X136027255Y-198919852D01*
X136027255Y-198919852D02*
X136089160Y-199043661D01*
X136089160Y-199043661D02*
X136089160Y-199353185D01*
X136089160Y-199353185D02*
X136027255Y-199476995D01*
X136027255Y-199476995D02*
X135965350Y-199538900D01*
X135965350Y-199538900D02*
X135841541Y-199600804D01*
X135841541Y-199600804D02*
X135470112Y-199600804D01*
X135470112Y-199600804D02*
X135346303Y-199538900D01*
X135346303Y-199538900D02*
X135284398Y-199476995D01*
X185965350Y-198734138D02*
X185965350Y-199600804D01*
X185655826Y-198238900D02*
X185346303Y-199167471D01*
X185346303Y-199167471D02*
X186151064Y-199167471D01*
X236027255Y-198300804D02*
X235408207Y-198300804D01*
X235408207Y-198300804D02*
X235346303Y-198919852D01*
X235346303Y-198919852D02*
X235408207Y-198857947D01*
X235408207Y-198857947D02*
X235532017Y-198796042D01*
X235532017Y-198796042D02*
X235841541Y-198796042D01*
X235841541Y-198796042D02*
X235965350Y-198857947D01*
X235965350Y-198857947D02*
X236027255Y-198919852D01*
X236027255Y-198919852D02*
X236089160Y-199043661D01*
X236089160Y-199043661D02*
X236089160Y-199353185D01*
X236089160Y-199353185D02*
X236027255Y-199476995D01*
X236027255Y-199476995D02*
X235965350Y-199538900D01*
X235965350Y-199538900D02*
X235841541Y-199600804D01*
X235841541Y-199600804D02*
X235532017Y-199600804D01*
X235532017Y-199600804D02*
X235408207Y-199538900D01*
X235408207Y-199538900D02*
X235346303Y-199476995D01*
X285965350Y-198300804D02*
X285717731Y-198300804D01*
X285717731Y-198300804D02*
X285593922Y-198362709D01*
X285593922Y-198362709D02*
X285532017Y-198424614D01*
X285532017Y-198424614D02*
X285408207Y-198610328D01*
X285408207Y-198610328D02*
X285346303Y-198857947D01*
X285346303Y-198857947D02*
X285346303Y-199353185D01*
X285346303Y-199353185D02*
X285408207Y-199476995D01*
X285408207Y-199476995D02*
X285470112Y-199538900D01*
X285470112Y-199538900D02*
X285593922Y-199600804D01*
X285593922Y-199600804D02*
X285841541Y-199600804D01*
X285841541Y-199600804D02*
X285965350Y-199538900D01*
X285965350Y-199538900D02*
X286027255Y-199476995D01*
X286027255Y-199476995D02*
X286089160Y-199353185D01*
X286089160Y-199353185D02*
X286089160Y-199043661D01*
X286089160Y-199043661D02*
X286027255Y-198919852D01*
X286027255Y-198919852D02*
X285965350Y-198857947D01*
X285965350Y-198857947D02*
X285841541Y-198796042D01*
X285841541Y-198796042D02*
X285593922Y-198796042D01*
X285593922Y-198796042D02*
X285470112Y-198857947D01*
X285470112Y-198857947D02*
X285408207Y-198919852D01*
X285408207Y-198919852D02*
X285346303Y-199043661D01*
X10000000Y-60000000D02*
X12000000Y-60000000D01*
X10000000Y-110000000D02*
X12000000Y-110000000D01*
X10000000Y-160000000D02*
X12000000Y-160000000D01*
X10690476Y-35222176D02*
X11309523Y-35222176D01*
X10566666Y-35593604D02*
X10999999Y-34293604D01*
X10999999Y-34293604D02*
X11433333Y-35593604D01*
X11092857Y-84912652D02*
X11278571Y-84974557D01*
X11278571Y-84974557D02*
X11340476Y-85036461D01*
X11340476Y-85036461D02*
X11402380Y-85160271D01*
X11402380Y-85160271D02*
X11402380Y-85345985D01*
X11402380Y-85345985D02*
X11340476Y-85469795D01*
X11340476Y-85469795D02*
X11278571Y-85531700D01*
X11278571Y-85531700D02*
X11154761Y-85593604D01*
X11154761Y-85593604D02*
X10659523Y-85593604D01*
X10659523Y-85593604D02*
X10659523Y-84293604D01*
X10659523Y-84293604D02*
X11092857Y-84293604D01*
X11092857Y-84293604D02*
X11216666Y-84355509D01*
X11216666Y-84355509D02*
X11278571Y-84417414D01*
X11278571Y-84417414D02*
X11340476Y-84541223D01*
X11340476Y-84541223D02*
X11340476Y-84665033D01*
X11340476Y-84665033D02*
X11278571Y-84788842D01*
X11278571Y-84788842D02*
X11216666Y-84850747D01*
X11216666Y-84850747D02*
X11092857Y-84912652D01*
X11092857Y-84912652D02*
X10659523Y-84912652D01*
X11402380Y-135469795D02*
X11340476Y-135531700D01*
X11340476Y-135531700D02*
X11154761Y-135593604D01*
X11154761Y-135593604D02*
X11030952Y-135593604D01*
X11030952Y-135593604D02*
X10845238Y-135531700D01*
X10845238Y-135531700D02*
X10721428Y-135407890D01*
X10721428Y-135407890D02*
X10659523Y-135284080D01*
X10659523Y-135284080D02*
X10597619Y-135036461D01*
X10597619Y-135036461D02*
X10597619Y-134850747D01*
X10597619Y-134850747D02*
X10659523Y-134603128D01*
X10659523Y-134603128D02*
X10721428Y-134479319D01*
X10721428Y-134479319D02*
X10845238Y-134355509D01*
X10845238Y-134355509D02*
X11030952Y-134293604D01*
X11030952Y-134293604D02*
X11154761Y-134293604D01*
X11154761Y-134293604D02*
X11340476Y-134355509D01*
X11340476Y-134355509D02*
X11402380Y-134417414D01*
X10659523Y-185593604D02*
X10659523Y-184293604D01*
X10659523Y-184293604D02*
X10969047Y-184293604D01*
X10969047Y-184293604D02*
X11154761Y-184355509D01*
X11154761Y-184355509D02*
X11278571Y-184479319D01*
X11278571Y-184479319D02*
X11340476Y-184603128D01*
X11340476Y-184603128D02*
X11402380Y-184850747D01*
X11402380Y-184850747D02*
X11402380Y-185036461D01*
X11402380Y-185036461D02*
X11340476Y-185284080D01*
X11340476Y-185284080D02*
X11278571Y-185407890D01*
X11278571Y-185407890D02*
X11154761Y-185531700D01*
X11154761Y-185531700D02*
X10969047Y-185593604D01*
X10969047Y-185593604D02*
X10659523Y-185593604D01*
X287002200Y-60000000D02*
X285002200Y-60000000D01*
X287002200Y-110000000D02*
X285002200Y-110000000D01*
X287002200Y-160000000D02*
X285002200Y-160000000D01*
X285692676Y-35222176D02*
X286311723Y-35222176D01*
X285568866Y-35593604D02*
X286002199Y-34293604D01*
X286002199Y-34293604D02*
X286435533Y-35593604D01*
X286095057Y-84912652D02*
X286280771Y-84974557D01*
X286280771Y-84974557D02*
X286342676Y-85036461D01*
X286342676Y-85036461D02*
X286404580Y-85160271D01*
X286404580Y-85160271D02*
X286404580Y-85345985D01*
X286404580Y-85345985D02*
X286342676Y-85469795D01*
X286342676Y-85469795D02*
X286280771Y-85531700D01*
X286280771Y-85531700D02*
X286156961Y-85593604D01*
X286156961Y-85593604D02*
X285661723Y-85593604D01*
X285661723Y-85593604D02*
X285661723Y-84293604D01*
X285661723Y-84293604D02*
X286095057Y-84293604D01*
X286095057Y-84293604D02*
X286218866Y-84355509D01*
X286218866Y-84355509D02*
X286280771Y-84417414D01*
X286280771Y-84417414D02*
X286342676Y-84541223D01*
X286342676Y-84541223D02*
X286342676Y-84665033D01*
X286342676Y-84665033D02*
X286280771Y-84788842D01*
X286280771Y-84788842D02*
X286218866Y-84850747D01*
X286218866Y-84850747D02*
X286095057Y-84912652D01*
X286095057Y-84912652D02*
X285661723Y-84912652D01*
X286404580Y-135469795D02*
X286342676Y-135531700D01*
X286342676Y-135531700D02*
X286156961Y-135593604D01*
X286156961Y-135593604D02*
X286033152Y-135593604D01*
X286033152Y-135593604D02*
X285847438Y-135531700D01*
X285847438Y-135531700D02*
X285723628Y-135407890D01*
X285723628Y-135407890D02*
X285661723Y-135284080D01*
X285661723Y-135284080D02*
X285599819Y-135036461D01*
X285599819Y-135036461D02*
X285599819Y-134850747D01*
X285599819Y-134850747D02*
X285661723Y-134603128D01*
X285661723Y-134603128D02*
X285723628Y-134479319D01*
X285723628Y-134479319D02*
X285847438Y-134355509D01*
X285847438Y-134355509D02*
X286033152Y-134293604D01*
X286033152Y-134293604D02*
X286156961Y-134293604D01*
X286156961Y-134293604D02*
X286342676Y-134355509D01*
X286342676Y-134355509D02*
X286404580Y-134417414D01*
X285661723Y-185593604D02*
X285661723Y-184293604D01*
X285661723Y-184293604D02*
X285971247Y-184293604D01*
X285971247Y-184293604D02*
X286156961Y-184355509D01*
X286156961Y-184355509D02*
X286280771Y-184479319D01*
X286280771Y-184479319D02*
X286342676Y-184603128D01*
X286342676Y-184603128D02*
X286404580Y-184850747D01*
X286404580Y-184850747D02*
X286404580Y-185036461D01*
X286404580Y-185036461D02*
X286342676Y-185284080D01*
X286342676Y-185284080D02*
X286280771Y-185407890D01*
X286280771Y-185407890D02*
X286156961Y-185531700D01*
X286156961Y-185531700D02*
X285971247Y-185593604D01*
X285971247Y-185593604D02*
X285661723Y-185593604D01*
X200458026Y-193793328D02*
X200458026Y-192293328D01*
X200458026Y-192293328D02*
X200815169Y-192293328D01*
X200815169Y-192293328D02*
X201029455Y-192364757D01*
X201029455Y-192364757D02*
X201172312Y-192507614D01*
X201172312Y-192507614D02*
X201243741Y-192650471D01*
X201243741Y-192650471D02*
X201315169Y-192936185D01*
X201315169Y-192936185D02*
X201315169Y-193150471D01*
X201315169Y-193150471D02*
X201243741Y-193436185D01*
X201243741Y-193436185D02*
X201172312Y-193579042D01*
X201172312Y-193579042D02*
X201029455Y-193721900D01*
X201029455Y-193721900D02*
X200815169Y-193793328D01*
X200815169Y-193793328D02*
X200458026Y-193793328D01*
X202600884Y-193793328D02*
X202600884Y-193007614D01*
X202600884Y-193007614D02*
X202529455Y-192864757D01*
X202529455Y-192864757D02*
X202386598Y-192793328D01*
X202386598Y-192793328D02*
X202100884Y-192793328D01*
X202100884Y-192793328D02*
X201958026Y-192864757D01*
X202600884Y-193721900D02*
X202458026Y-193793328D01*
X202458026Y-193793328D02*
X202100884Y-193793328D01*
X202100884Y-193793328D02*
X201958026Y-193721900D01*
X201958026Y-193721900D02*
X201886598Y-193579042D01*
X201886598Y-193579042D02*
X201886598Y-193436185D01*
X201886598Y-193436185D02*
X201958026Y-193293328D01*
X201958026Y-193293328D02*
X202100884Y-193221900D01*
X202100884Y-193221900D02*
X202458026Y-193221900D01*
X202458026Y-193221900D02*
X202600884Y-193150471D01*
X203100884Y-192793328D02*
X203672312Y-192793328D01*
X203315169Y-192293328D02*
X203315169Y-193579042D01*
X203315169Y-193579042D02*
X203386598Y-193721900D01*
X203386598Y-193721900D02*
X203529455Y-193793328D01*
X203529455Y-193793328D02*
X203672312Y-193793328D01*
X204743741Y-193721900D02*
X204600884Y-193793328D01*
X204600884Y-193793328D02*
X204315170Y-193793328D01*
X204315170Y-193793328D02*
X204172312Y-193721900D01*
X204172312Y-193721900D02*
X204100884Y-193579042D01*
X204100884Y-193579042D02*
X204100884Y-193007614D01*
X204100884Y-193007614D02*
X204172312Y-192864757D01*
X204172312Y-192864757D02*
X204315170Y-192793328D01*
X204315170Y-192793328D02*
X204600884Y-192793328D01*
X204600884Y-192793328D02*
X204743741Y-192864757D01*
X204743741Y-192864757D02*
X204815170Y-193007614D01*
X204815170Y-193007614D02*
X204815170Y-193150471D01*
X204815170Y-193150471D02*
X204100884Y-193293328D01*
X205458026Y-193650471D02*
X205529455Y-193721900D01*
X205529455Y-193721900D02*
X205458026Y-193793328D01*
X205458026Y-193793328D02*
X205386598Y-193721900D01*
X205386598Y-193721900D02*
X205458026Y-193650471D01*
X205458026Y-193650471D02*
X205458026Y-193793328D01*
X205458026Y-192864757D02*
X205529455Y-192936185D01*
X205529455Y-192936185D02*
X205458026Y-193007614D01*
X205458026Y-193007614D02*
X205386598Y-192936185D01*
X205386598Y-192936185D02*
X205458026Y-192864757D01*
X205458026Y-192864757D02*
X205458026Y-193007614D01*
X177002200Y-194507200D02*
X285002200Y-194507200D01*
X178458026Y-196593328D02*
X178458026Y-195093328D01*
X179315169Y-196593328D02*
X178672312Y-195736185D01*
X179315169Y-195093328D02*
X178458026Y-195950471D01*
X179958026Y-196593328D02*
X179958026Y-195593328D01*
X179958026Y-195093328D02*
X179886598Y-195164757D01*
X179886598Y-195164757D02*
X179958026Y-195236185D01*
X179958026Y-195236185D02*
X180029455Y-195164757D01*
X180029455Y-195164757D02*
X179958026Y-195093328D01*
X179958026Y-195093328D02*
X179958026Y-195236185D01*
X181529455Y-196450471D02*
X181458027Y-196521900D01*
X181458027Y-196521900D02*
X181243741Y-196593328D01*
X181243741Y-196593328D02*
X181100884Y-196593328D01*
X181100884Y-196593328D02*
X180886598Y-196521900D01*
X180886598Y-196521900D02*
X180743741Y-196379042D01*
X180743741Y-196379042D02*
X180672312Y-196236185D01*
X180672312Y-196236185D02*
X180600884Y-195950471D01*
X180600884Y-195950471D02*
X180600884Y-195736185D01*
X180600884Y-195736185D02*
X180672312Y-195450471D01*
X180672312Y-195450471D02*
X180743741Y-195307614D01*
X180743741Y-195307614D02*
X180886598Y-195164757D01*
X180886598Y-195164757D02*
X181100884Y-195093328D01*
X181100884Y-195093328D02*
X181243741Y-195093328D01*
X181243741Y-195093328D02*
X181458027Y-195164757D01*
X181458027Y-195164757D02*
X181529455Y-195236185D01*
X182815170Y-196593328D02*
X182815170Y-195807614D01*
X182815170Y-195807614D02*
X182743741Y-195664757D01*
X182743741Y-195664757D02*
X182600884Y-195593328D01*
X182600884Y-195593328D02*
X182315170Y-195593328D01*
X182315170Y-195593328D02*
X182172312Y-195664757D01*
X182815170Y-196521900D02*
X182672312Y-196593328D01*
X182672312Y-196593328D02*
X182315170Y-196593328D01*
X182315170Y-196593328D02*
X182172312Y-196521900D01*
X182172312Y-196521900D02*
X182100884Y-196379042D01*
X182100884Y-196379042D02*
X182100884Y-196236185D01*
X182100884Y-196236185D02*
X182172312Y-196093328D01*
X182172312Y-196093328D02*
X182315170Y-196021900D01*
X182315170Y-196021900D02*
X182672312Y-196021900D01*
X182672312Y-196021900D02*
X182815170Y-195950471D01*
X184172313Y-196593328D02*
X184172313Y-195093328D01*
X184172313Y-196521900D02*
X184029455Y-196593328D01*
X184029455Y-196593328D02*
X183743741Y-196593328D01*
X183743741Y-196593328D02*
X183600884Y-196521900D01*
X183600884Y-196521900D02*
X183529455Y-196450471D01*
X183529455Y-196450471D02*
X183458027Y-196307614D01*
X183458027Y-196307614D02*
X183458027Y-195879042D01*
X183458027Y-195879042D02*
X183529455Y-195736185D01*
X183529455Y-195736185D02*
X183600884Y-195664757D01*
X183600884Y-195664757D02*
X183743741Y-195593328D01*
X183743741Y-195593328D02*
X184029455Y-195593328D01*
X184029455Y-195593328D02*
X184172313Y-195664757D01*
X186029455Y-195807614D02*
X186529455Y-195807614D01*
X186743741Y-196593328D02*
X186029455Y-196593328D01*
X186029455Y-196593328D02*
X186029455Y-195093328D01*
X186029455Y-195093328D02*
X186743741Y-195093328D01*
X187386598Y-196450471D02*
X187458027Y-196521900D01*
X187458027Y-196521900D02*
X187386598Y-196593328D01*
X187386598Y-196593328D02*
X187315170Y-196521900D01*
X187315170Y-196521900D02*
X187386598Y-196450471D01*
X187386598Y-196450471D02*
X187386598Y-196593328D01*
X188100884Y-196593328D02*
X188100884Y-195093328D01*
X188100884Y-195093328D02*
X188458027Y-195093328D01*
X188458027Y-195093328D02*
X188672313Y-195164757D01*
X188672313Y-195164757D02*
X188815170Y-195307614D01*
X188815170Y-195307614D02*
X188886599Y-195450471D01*
X188886599Y-195450471D02*
X188958027Y-195736185D01*
X188958027Y-195736185D02*
X188958027Y-195950471D01*
X188958027Y-195950471D02*
X188886599Y-196236185D01*
X188886599Y-196236185D02*
X188815170Y-196379042D01*
X188815170Y-196379042D02*
X188672313Y-196521900D01*
X188672313Y-196521900D02*
X188458027Y-196593328D01*
X188458027Y-196593328D02*
X188100884Y-196593328D01*
X189600884Y-196450471D02*
X189672313Y-196521900D01*
X189672313Y-196521900D02*
X189600884Y-196593328D01*
X189600884Y-196593328D02*
X189529456Y-196521900D01*
X189529456Y-196521900D02*
X189600884Y-196450471D01*
X189600884Y-196450471D02*
X189600884Y-196593328D01*
X190243742Y-196164757D02*
X190958028Y-196164757D01*
X190100885Y-196593328D02*
X190600885Y-195093328D01*
X190600885Y-195093328D02*
X191100885Y-196593328D01*
X191600884Y-196450471D02*
X191672313Y-196521900D01*
X191672313Y-196521900D02*
X191600884Y-196593328D01*
X191600884Y-196593328D02*
X191529456Y-196521900D01*
X191529456Y-196521900D02*
X191600884Y-196450471D01*
X191600884Y-196450471D02*
X191600884Y-196593328D01*
X194243742Y-196593328D02*
X193386599Y-196593328D01*
X193815170Y-196593328D02*
X193815170Y-195093328D01*
X193815170Y-195093328D02*
X193672313Y-195307614D01*
X193672313Y-195307614D02*
X193529456Y-195450471D01*
X193529456Y-195450471D02*
X193386599Y-195521900D01*
X195172313Y-195093328D02*
X195315170Y-195093328D01*
X195315170Y-195093328D02*
X195458027Y-195164757D01*
X195458027Y-195164757D02*
X195529456Y-195236185D01*
X195529456Y-195236185D02*
X195600884Y-195379042D01*
X195600884Y-195379042D02*
X195672313Y-195664757D01*
X195672313Y-195664757D02*
X195672313Y-196021900D01*
X195672313Y-196021900D02*
X195600884Y-196307614D01*
X195600884Y-196307614D02*
X195529456Y-196450471D01*
X195529456Y-196450471D02*
X195458027Y-196521900D01*
X195458027Y-196521900D02*
X195315170Y-196593328D01*
X195315170Y-196593328D02*
X195172313Y-196593328D01*
X195172313Y-196593328D02*
X195029456Y-196521900D01*
X195029456Y-196521900D02*
X194958027Y-196450471D01*
X194958027Y-196450471D02*
X194886598Y-196307614D01*
X194886598Y-196307614D02*
X194815170Y-196021900D01*
X194815170Y-196021900D02*
X194815170Y-195664757D01*
X194815170Y-195664757D02*
X194886598Y-195379042D01*
X194886598Y-195379042D02*
X194958027Y-195236185D01*
X194958027Y-195236185D02*
X195029456Y-195164757D01*
X195029456Y-195164757D02*
X195172313Y-195093328D01*
X196315169Y-196450471D02*
X196386598Y-196521900D01*
X196386598Y-196521900D02*
X196315169Y-196593328D01*
X196315169Y-196593328D02*
X196243741Y-196521900D01*
X196243741Y-196521900D02*
X196315169Y-196450471D01*
X196315169Y-196450471D02*
X196315169Y-196593328D01*
X197315170Y-195093328D02*
X197458027Y-195093328D01*
X197458027Y-195093328D02*
X197600884Y-195164757D01*
X197600884Y-195164757D02*
X197672313Y-195236185D01*
X197672313Y-195236185D02*
X197743741Y-195379042D01*
X197743741Y-195379042D02*
X197815170Y-195664757D01*
X197815170Y-195664757D02*
X197815170Y-196021900D01*
X197815170Y-196021900D02*
X197743741Y-196307614D01*
X197743741Y-196307614D02*
X197672313Y-196450471D01*
X197672313Y-196450471D02*
X197600884Y-196521900D01*
X197600884Y-196521900D02*
X197458027Y-196593328D01*
X197458027Y-196593328D02*
X197315170Y-196593328D01*
X197315170Y-196593328D02*
X197172313Y-196521900D01*
X197172313Y-196521900D02*
X197100884Y-196450471D01*
X197100884Y-196450471D02*
X197029455Y-196307614D01*
X197029455Y-196307614D02*
X196958027Y-196021900D01*
X196958027Y-196021900D02*
X196958027Y-195664757D01*
X196958027Y-195664757D02*
X197029455Y-195379042D01*
X197029455Y-195379042D02*
X197100884Y-195236185D01*
X197100884Y-195236185D02*
X197172313Y-195164757D01*
X197172313Y-195164757D02*
X197315170Y-195093328D01*
X198458026Y-196450471D02*
X198529455Y-196521900D01*
X198529455Y-196521900D02*
X198458026Y-196593328D01*
X198458026Y-196593328D02*
X198386598Y-196521900D01*
X198386598Y-196521900D02*
X198458026Y-196450471D01*
X198458026Y-196450471D02*
X198458026Y-196593328D01*
X199815170Y-195593328D02*
X199815170Y-196593328D01*
X199458027Y-195021900D02*
X199100884Y-196093328D01*
X199100884Y-196093328D02*
X200029455Y-196093328D01*
X177002200Y-191507200D02*
X285002200Y-191507200D01*
D11*
X264413853Y-193785528D02*
X263913853Y-193071242D01*
X263556710Y-193785528D02*
X263556710Y-192285528D01*
X263556710Y-192285528D02*
X264128139Y-192285528D01*
X264128139Y-192285528D02*
X264270996Y-192356957D01*
X264270996Y-192356957D02*
X264342425Y-192428385D01*
X264342425Y-192428385D02*
X264413853Y-192571242D01*
X264413853Y-192571242D02*
X264413853Y-192785528D01*
X264413853Y-192785528D02*
X264342425Y-192928385D01*
X264342425Y-192928385D02*
X264270996Y-192999814D01*
X264270996Y-192999814D02*
X264128139Y-193071242D01*
X264128139Y-193071242D02*
X263556710Y-193071242D01*
X265628139Y-193714100D02*
X265485282Y-193785528D01*
X265485282Y-193785528D02*
X265199568Y-193785528D01*
X265199568Y-193785528D02*
X265056710Y-193714100D01*
X265056710Y-193714100D02*
X264985282Y-193571242D01*
X264985282Y-193571242D02*
X264985282Y-192999814D01*
X264985282Y-192999814D02*
X265056710Y-192856957D01*
X265056710Y-192856957D02*
X265199568Y-192785528D01*
X265199568Y-192785528D02*
X265485282Y-192785528D01*
X265485282Y-192785528D02*
X265628139Y-192856957D01*
X265628139Y-192856957D02*
X265699568Y-192999814D01*
X265699568Y-192999814D02*
X265699568Y-193142671D01*
X265699568Y-193142671D02*
X264985282Y-193285528D01*
X266199567Y-192785528D02*
X266556710Y-193785528D01*
X266556710Y-193785528D02*
X266913853Y-192785528D01*
X267485281Y-193642671D02*
X267556710Y-193714100D01*
X267556710Y-193714100D02*
X267485281Y-193785528D01*
X267485281Y-193785528D02*
X267413853Y-193714100D01*
X267413853Y-193714100D02*
X267485281Y-193642671D01*
X267485281Y-193642671D02*
X267485281Y-193785528D01*
X267485281Y-192856957D02*
X267556710Y-192928385D01*
X267556710Y-192928385D02*
X267485281Y-192999814D01*
X267485281Y-192999814D02*
X267413853Y-192928385D01*
X267413853Y-192928385D02*
X267485281Y-192856957D01*
X267485281Y-192856957D02*
X267485281Y-192999814D01*
D10*
X178386598Y-193721900D02*
X178600884Y-193793328D01*
X178600884Y-193793328D02*
X178958026Y-193793328D01*
X178958026Y-193793328D02*
X179100884Y-193721900D01*
X179100884Y-193721900D02*
X179172312Y-193650471D01*
X179172312Y-193650471D02*
X179243741Y-193507614D01*
X179243741Y-193507614D02*
X179243741Y-193364757D01*
X179243741Y-193364757D02*
X179172312Y-193221900D01*
X179172312Y-193221900D02*
X179100884Y-193150471D01*
X179100884Y-193150471D02*
X178958026Y-193079042D01*
X178958026Y-193079042D02*
X178672312Y-193007614D01*
X178672312Y-193007614D02*
X178529455Y-192936185D01*
X178529455Y-192936185D02*
X178458026Y-192864757D01*
X178458026Y-192864757D02*
X178386598Y-192721900D01*
X178386598Y-192721900D02*
X178386598Y-192579042D01*
X178386598Y-192579042D02*
X178458026Y-192436185D01*
X178458026Y-192436185D02*
X178529455Y-192364757D01*
X178529455Y-192364757D02*
X178672312Y-192293328D01*
X178672312Y-192293328D02*
X179029455Y-192293328D01*
X179029455Y-192293328D02*
X179243741Y-192364757D01*
X179886597Y-193793328D02*
X179886597Y-192793328D01*
X179886597Y-192293328D02*
X179815169Y-192364757D01*
X179815169Y-192364757D02*
X179886597Y-192436185D01*
X179886597Y-192436185D02*
X179958026Y-192364757D01*
X179958026Y-192364757D02*
X179886597Y-192293328D01*
X179886597Y-192293328D02*
X179886597Y-192436185D01*
X180458026Y-192793328D02*
X181243741Y-192793328D01*
X181243741Y-192793328D02*
X180458026Y-193793328D01*
X180458026Y-193793328D02*
X181243741Y-193793328D01*
X182386598Y-193721900D02*
X182243741Y-193793328D01*
X182243741Y-193793328D02*
X181958027Y-193793328D01*
X181958027Y-193793328D02*
X181815169Y-193721900D01*
X181815169Y-193721900D02*
X181743741Y-193579042D01*
X181743741Y-193579042D02*
X181743741Y-193007614D01*
X181743741Y-193007614D02*
X181815169Y-192864757D01*
X181815169Y-192864757D02*
X181958027Y-192793328D01*
X181958027Y-192793328D02*
X182243741Y-192793328D01*
X182243741Y-192793328D02*
X182386598Y-192864757D01*
X182386598Y-192864757D02*
X182458027Y-193007614D01*
X182458027Y-193007614D02*
X182458027Y-193150471D01*
X182458027Y-193150471D02*
X181743741Y-193293328D01*
X183100883Y-193650471D02*
X183172312Y-193721900D01*
X183172312Y-193721900D02*
X183100883Y-193793328D01*
X183100883Y-193793328D02*
X183029455Y-193721900D01*
X183029455Y-193721900D02*
X183100883Y-193650471D01*
X183100883Y-193650471D02*
X183100883Y-193793328D01*
X183100883Y-192864757D02*
X183172312Y-192936185D01*
X183172312Y-192936185D02*
X183100883Y-193007614D01*
X183100883Y-193007614D02*
X183029455Y-192936185D01*
X183029455Y-192936185D02*
X183100883Y-192864757D01*
X183100883Y-192864757D02*
X183100883Y-193007614D01*
X184886598Y-193364757D02*
X185600884Y-193364757D01*
X184743741Y-193793328D02*
X185243741Y-192293328D01*
X185243741Y-192293328D02*
X185743741Y-193793328D01*
X186886598Y-192793328D02*
X186886598Y-193793328D01*
X186529455Y-192221900D02*
X186172312Y-193293328D01*
X186172312Y-193293328D02*
X187100883Y-193293328D01*
X263458026Y-196593328D02*
X263458026Y-195093328D01*
X264815170Y-196593328D02*
X264815170Y-195093328D01*
X264815170Y-196521900D02*
X264672312Y-196593328D01*
X264672312Y-196593328D02*
X264386598Y-196593328D01*
X264386598Y-196593328D02*
X264243741Y-196521900D01*
X264243741Y-196521900D02*
X264172312Y-196450471D01*
X264172312Y-196450471D02*
X264100884Y-196307614D01*
X264100884Y-196307614D02*
X264100884Y-195879042D01*
X264100884Y-195879042D02*
X264172312Y-195736185D01*
X264172312Y-195736185D02*
X264243741Y-195664757D01*
X264243741Y-195664757D02*
X264386598Y-195593328D01*
X264386598Y-195593328D02*
X264672312Y-195593328D01*
X264672312Y-195593328D02*
X264815170Y-195664757D01*
X265529455Y-196450471D02*
X265600884Y-196521900D01*
X265600884Y-196521900D02*
X265529455Y-196593328D01*
X265529455Y-196593328D02*
X265458027Y-196521900D01*
X265458027Y-196521900D02*
X265529455Y-196450471D01*
X265529455Y-196450471D02*
X265529455Y-196593328D01*
X265529455Y-195664757D02*
X265600884Y-195736185D01*
X265600884Y-195736185D02*
X265529455Y-195807614D01*
X265529455Y-195807614D02*
X265458027Y-195736185D01*
X265458027Y-195736185D02*
X265529455Y-195664757D01*
X265529455Y-195664757D02*
X265529455Y-195807614D01*
X268100884Y-195093328D02*
X267386598Y-195093328D01*
X267386598Y-195093328D02*
X267315170Y-195807614D01*
X267315170Y-195807614D02*
X267386598Y-195736185D01*
X267386598Y-195736185D02*
X267529456Y-195664757D01*
X267529456Y-195664757D02*
X267886598Y-195664757D01*
X267886598Y-195664757D02*
X268029456Y-195736185D01*
X268029456Y-195736185D02*
X268100884Y-195807614D01*
X268100884Y-195807614D02*
X268172313Y-195950471D01*
X268172313Y-195950471D02*
X268172313Y-196307614D01*
X268172313Y-196307614D02*
X268100884Y-196450471D01*
X268100884Y-196450471D02*
X268029456Y-196521900D01*
X268029456Y-196521900D02*
X267886598Y-196593328D01*
X267886598Y-196593328D02*
X267529456Y-196593328D01*
X267529456Y-196593328D02*
X267386598Y-196521900D01*
X267386598Y-196521900D02*
X267315170Y-196450471D01*
X269886598Y-195021900D02*
X268600884Y-196950471D01*
X270458027Y-196593328D02*
X270743741Y-196593328D01*
X270743741Y-196593328D02*
X270886598Y-196521900D01*
X270886598Y-196521900D02*
X270958027Y-196450471D01*
X270958027Y-196450471D02*
X271100884Y-196236185D01*
X271100884Y-196236185D02*
X271172313Y-195950471D01*
X271172313Y-195950471D02*
X271172313Y-195379042D01*
X271172313Y-195379042D02*
X271100884Y-195236185D01*
X271100884Y-195236185D02*
X271029456Y-195164757D01*
X271029456Y-195164757D02*
X270886598Y-195093328D01*
X270886598Y-195093328D02*
X270600884Y-195093328D01*
X270600884Y-195093328D02*
X270458027Y-195164757D01*
X270458027Y-195164757D02*
X270386598Y-195236185D01*
X270386598Y-195236185D02*
X270315170Y-195379042D01*
X270315170Y-195379042D02*
X270315170Y-195736185D01*
X270315170Y-195736185D02*
X270386598Y-195879042D01*
X270386598Y-195879042D02*
X270458027Y-195950471D01*
X270458027Y-195950471D02*
X270600884Y-196021900D01*
X270600884Y-196021900D02*
X270886598Y-196021900D01*
X270886598Y-196021900D02*
X271029456Y-195950471D01*
X271029456Y-195950471D02*
X271100884Y-195879042D01*
X271100884Y-195879042D02*
X271172313Y-195736185D01*
X177002200Y-187507200D02*
X285002200Y-187507200D01*
D12*
X178693928Y-188211638D02*
X179836785Y-188211638D01*
X179015357Y-190211638D02*
X179265357Y-188211638D01*
X180253452Y-190211638D02*
X180420119Y-188878304D01*
X180503452Y-188211638D02*
X180396309Y-188306876D01*
X180396309Y-188306876D02*
X180479643Y-188402114D01*
X180479643Y-188402114D02*
X180586786Y-188306876D01*
X180586786Y-188306876D02*
X180503452Y-188211638D01*
X180503452Y-188211638D02*
X180479643Y-188402114D01*
X181086786Y-188878304D02*
X181848690Y-188878304D01*
X181455833Y-188211638D02*
X181241548Y-189925923D01*
X181241548Y-189925923D02*
X181312976Y-190116400D01*
X181312976Y-190116400D02*
X181491548Y-190211638D01*
X181491548Y-190211638D02*
X181682024Y-190211638D01*
X182634405Y-190211638D02*
X182455833Y-190116400D01*
X182455833Y-190116400D02*
X182384405Y-189925923D01*
X182384405Y-189925923D02*
X182598690Y-188211638D01*
X184170119Y-190116400D02*
X183967738Y-190211638D01*
X183967738Y-190211638D02*
X183586785Y-190211638D01*
X183586785Y-190211638D02*
X183408214Y-190116400D01*
X183408214Y-190116400D02*
X183336785Y-189925923D01*
X183336785Y-189925923D02*
X183432024Y-189164019D01*
X183432024Y-189164019D02*
X183551071Y-188973542D01*
X183551071Y-188973542D02*
X183753452Y-188878304D01*
X183753452Y-188878304D02*
X184134404Y-188878304D01*
X184134404Y-188878304D02*
X184312976Y-188973542D01*
X184312976Y-188973542D02*
X184384404Y-189164019D01*
X184384404Y-189164019D02*
X184360595Y-189354495D01*
X184360595Y-189354495D02*
X183384404Y-189544971D01*
X185134405Y-190021161D02*
X185217738Y-190116400D01*
X185217738Y-190116400D02*
X185110595Y-190211638D01*
X185110595Y-190211638D02*
X185027262Y-190116400D01*
X185027262Y-190116400D02*
X185134405Y-190021161D01*
X185134405Y-190021161D02*
X185110595Y-190211638D01*
X185265357Y-188973542D02*
X185348690Y-189068780D01*
X185348690Y-189068780D02*
X185241548Y-189164019D01*
X185241548Y-189164019D02*
X185158214Y-189068780D01*
X185158214Y-189068780D02*
X185265357Y-188973542D01*
X185265357Y-188973542D02*
X185241548Y-189164019D01*
D10*
X178958026Y-185607614D02*
X178458026Y-185607614D01*
X178458026Y-186393328D02*
X178458026Y-184893328D01*
X178458026Y-184893328D02*
X179172312Y-184893328D01*
X179743740Y-186393328D02*
X179743740Y-185393328D01*
X179743740Y-184893328D02*
X179672312Y-184964757D01*
X179672312Y-184964757D02*
X179743740Y-185036185D01*
X179743740Y-185036185D02*
X179815169Y-184964757D01*
X179815169Y-184964757D02*
X179743740Y-184893328D01*
X179743740Y-184893328D02*
X179743740Y-185036185D01*
X180672312Y-186393328D02*
X180529455Y-186321900D01*
X180529455Y-186321900D02*
X180458026Y-186179042D01*
X180458026Y-186179042D02*
X180458026Y-184893328D01*
X181815169Y-186321900D02*
X181672312Y-186393328D01*
X181672312Y-186393328D02*
X181386598Y-186393328D01*
X181386598Y-186393328D02*
X181243740Y-186321900D01*
X181243740Y-186321900D02*
X181172312Y-186179042D01*
X181172312Y-186179042D02*
X181172312Y-185607614D01*
X181172312Y-185607614D02*
X181243740Y-185464757D01*
X181243740Y-185464757D02*
X181386598Y-185393328D01*
X181386598Y-185393328D02*
X181672312Y-185393328D01*
X181672312Y-185393328D02*
X181815169Y-185464757D01*
X181815169Y-185464757D02*
X181886598Y-185607614D01*
X181886598Y-185607614D02*
X181886598Y-185750471D01*
X181886598Y-185750471D02*
X181172312Y-185893328D01*
X182529454Y-186250471D02*
X182600883Y-186321900D01*
X182600883Y-186321900D02*
X182529454Y-186393328D01*
X182529454Y-186393328D02*
X182458026Y-186321900D01*
X182458026Y-186321900D02*
X182529454Y-186250471D01*
X182529454Y-186250471D02*
X182529454Y-186393328D01*
X182529454Y-185464757D02*
X182600883Y-185536185D01*
X182600883Y-185536185D02*
X182529454Y-185607614D01*
X182529454Y-185607614D02*
X182458026Y-185536185D01*
X182458026Y-185536185D02*
X182529454Y-185464757D01*
X182529454Y-185464757D02*
X182529454Y-185607614D01*
X184386597Y-186393328D02*
X184386597Y-184893328D01*
X185029455Y-186393328D02*
X185029455Y-185607614D01*
X185029455Y-185607614D02*
X184958026Y-185464757D01*
X184958026Y-185464757D02*
X184815169Y-185393328D01*
X184815169Y-185393328D02*
X184600883Y-185393328D01*
X184600883Y-185393328D02*
X184458026Y-185464757D01*
X184458026Y-185464757D02*
X184386597Y-185536185D01*
X186315169Y-186321900D02*
X186172312Y-186393328D01*
X186172312Y-186393328D02*
X185886598Y-186393328D01*
X185886598Y-186393328D02*
X185743740Y-186321900D01*
X185743740Y-186321900D02*
X185672312Y-186179042D01*
X185672312Y-186179042D02*
X185672312Y-185607614D01*
X185672312Y-185607614D02*
X185743740Y-185464757D01*
X185743740Y-185464757D02*
X185886598Y-185393328D01*
X185886598Y-185393328D02*
X186172312Y-185393328D01*
X186172312Y-185393328D02*
X186315169Y-185464757D01*
X186315169Y-185464757D02*
X186386598Y-185607614D01*
X186386598Y-185607614D02*
X186386598Y-185750471D01*
X186386598Y-185750471D02*
X185672312Y-185893328D01*
X187672312Y-186393328D02*
X187672312Y-185607614D01*
X187672312Y-185607614D02*
X187600883Y-185464757D01*
X187600883Y-185464757D02*
X187458026Y-185393328D01*
X187458026Y-185393328D02*
X187172312Y-185393328D01*
X187172312Y-185393328D02*
X187029454Y-185464757D01*
X187672312Y-186321900D02*
X187529454Y-186393328D01*
X187529454Y-186393328D02*
X187172312Y-186393328D01*
X187172312Y-186393328D02*
X187029454Y-186321900D01*
X187029454Y-186321900D02*
X186958026Y-186179042D01*
X186958026Y-186179042D02*
X186958026Y-186036185D01*
X186958026Y-186036185D02*
X187029454Y-185893328D01*
X187029454Y-185893328D02*
X187172312Y-185821900D01*
X187172312Y-185821900D02*
X187529454Y-185821900D01*
X187529454Y-185821900D02*
X187672312Y-185750471D01*
X188386597Y-186393328D02*
X188386597Y-185393328D01*
X188386597Y-185679042D02*
X188458026Y-185536185D01*
X188458026Y-185536185D02*
X188529455Y-185464757D01*
X188529455Y-185464757D02*
X188672312Y-185393328D01*
X188672312Y-185393328D02*
X188815169Y-185393328D01*
X189100883Y-185393328D02*
X189672311Y-185393328D01*
X189315168Y-184893328D02*
X189315168Y-186179042D01*
X189315168Y-186179042D02*
X189386597Y-186321900D01*
X189386597Y-186321900D02*
X189529454Y-186393328D01*
X189529454Y-186393328D02*
X189672311Y-186393328D01*
X190172311Y-185821900D02*
X191315169Y-185821900D01*
X192029454Y-185393328D02*
X192029454Y-186893328D01*
X192029454Y-185464757D02*
X192172312Y-185393328D01*
X192172312Y-185393328D02*
X192458026Y-185393328D01*
X192458026Y-185393328D02*
X192600883Y-185464757D01*
X192600883Y-185464757D02*
X192672312Y-185536185D01*
X192672312Y-185536185D02*
X192743740Y-185679042D01*
X192743740Y-185679042D02*
X192743740Y-186107614D01*
X192743740Y-186107614D02*
X192672312Y-186250471D01*
X192672312Y-186250471D02*
X192600883Y-186321900D01*
X192600883Y-186321900D02*
X192458026Y-186393328D01*
X192458026Y-186393328D02*
X192172312Y-186393328D01*
X192172312Y-186393328D02*
X192029454Y-186321900D01*
X194029455Y-186321900D02*
X193886597Y-186393328D01*
X193886597Y-186393328D02*
X193600883Y-186393328D01*
X193600883Y-186393328D02*
X193458026Y-186321900D01*
X193458026Y-186321900D02*
X193386597Y-186250471D01*
X193386597Y-186250471D02*
X193315169Y-186107614D01*
X193315169Y-186107614D02*
X193315169Y-185679042D01*
X193315169Y-185679042D02*
X193386597Y-185536185D01*
X193386597Y-185536185D02*
X193458026Y-185464757D01*
X193458026Y-185464757D02*
X193600883Y-185393328D01*
X193600883Y-185393328D02*
X193886597Y-185393328D01*
X193886597Y-185393328D02*
X194029455Y-185464757D01*
X194672311Y-186393328D02*
X194672311Y-184893328D01*
X194672311Y-185464757D02*
X194815169Y-185393328D01*
X194815169Y-185393328D02*
X195100883Y-185393328D01*
X195100883Y-185393328D02*
X195243740Y-185464757D01*
X195243740Y-185464757D02*
X195315169Y-185536185D01*
X195315169Y-185536185D02*
X195386597Y-185679042D01*
X195386597Y-185679042D02*
X195386597Y-186107614D01*
X195386597Y-186107614D02*
X195315169Y-186250471D01*
X195315169Y-186250471D02*
X195243740Y-186321900D01*
X195243740Y-186321900D02*
X195100883Y-186393328D01*
X195100883Y-186393328D02*
X194815169Y-186393328D01*
X194815169Y-186393328D02*
X194672311Y-186321900D01*
X196029454Y-186250471D02*
X196100883Y-186321900D01*
X196100883Y-186321900D02*
X196029454Y-186393328D01*
X196029454Y-186393328D02*
X195958026Y-186321900D01*
X195958026Y-186321900D02*
X196029454Y-186250471D01*
X196029454Y-186250471D02*
X196029454Y-186393328D01*
X196743740Y-186393328D02*
X196743740Y-184893328D01*
X196886598Y-185821900D02*
X197315169Y-186393328D01*
X197315169Y-185393328D02*
X196743740Y-185964757D01*
X197958026Y-186393328D02*
X197958026Y-185393328D01*
X197958026Y-184893328D02*
X197886598Y-184964757D01*
X197886598Y-184964757D02*
X197958026Y-185036185D01*
X197958026Y-185036185D02*
X198029455Y-184964757D01*
X198029455Y-184964757D02*
X197958026Y-184893328D01*
X197958026Y-184893328D02*
X197958026Y-185036185D01*
X199315170Y-186321900D02*
X199172312Y-186393328D01*
X199172312Y-186393328D02*
X198886598Y-186393328D01*
X198886598Y-186393328D02*
X198743741Y-186321900D01*
X198743741Y-186321900D02*
X198672312Y-186250471D01*
X198672312Y-186250471D02*
X198600884Y-186107614D01*
X198600884Y-186107614D02*
X198600884Y-185679042D01*
X198600884Y-185679042D02*
X198672312Y-185536185D01*
X198672312Y-185536185D02*
X198743741Y-185464757D01*
X198743741Y-185464757D02*
X198886598Y-185393328D01*
X198886598Y-185393328D02*
X199172312Y-185393328D01*
X199172312Y-185393328D02*
X199315170Y-185464757D01*
X200600884Y-186393328D02*
X200600884Y-185607614D01*
X200600884Y-185607614D02*
X200529455Y-185464757D01*
X200529455Y-185464757D02*
X200386598Y-185393328D01*
X200386598Y-185393328D02*
X200100884Y-185393328D01*
X200100884Y-185393328D02*
X199958026Y-185464757D01*
X200600884Y-186321900D02*
X200458026Y-186393328D01*
X200458026Y-186393328D02*
X200100884Y-186393328D01*
X200100884Y-186393328D02*
X199958026Y-186321900D01*
X199958026Y-186321900D02*
X199886598Y-186179042D01*
X199886598Y-186179042D02*
X199886598Y-186036185D01*
X199886598Y-186036185D02*
X199958026Y-185893328D01*
X199958026Y-185893328D02*
X200100884Y-185821900D01*
X200100884Y-185821900D02*
X200458026Y-185821900D01*
X200458026Y-185821900D02*
X200600884Y-185750471D01*
X201958027Y-186393328D02*
X201958027Y-184893328D01*
X201958027Y-186321900D02*
X201815169Y-186393328D01*
X201815169Y-186393328D02*
X201529455Y-186393328D01*
X201529455Y-186393328D02*
X201386598Y-186321900D01*
X201386598Y-186321900D02*
X201315169Y-186250471D01*
X201315169Y-186250471D02*
X201243741Y-186107614D01*
X201243741Y-186107614D02*
X201243741Y-185679042D01*
X201243741Y-185679042D02*
X201315169Y-185536185D01*
X201315169Y-185536185D02*
X201386598Y-185464757D01*
X201386598Y-185464757D02*
X201529455Y-185393328D01*
X201529455Y-185393328D02*
X201815169Y-185393328D01*
X201815169Y-185393328D02*
X201958027Y-185464757D01*
X202315170Y-186536185D02*
X203458027Y-186536185D01*
X203815169Y-185393328D02*
X203815169Y-186893328D01*
X203815169Y-185464757D02*
X203958027Y-185393328D01*
X203958027Y-185393328D02*
X204243741Y-185393328D01*
X204243741Y-185393328D02*
X204386598Y-185464757D01*
X204386598Y-185464757D02*
X204458027Y-185536185D01*
X204458027Y-185536185D02*
X204529455Y-185679042D01*
X204529455Y-185679042D02*
X204529455Y-186107614D01*
X204529455Y-186107614D02*
X204458027Y-186250471D01*
X204458027Y-186250471D02*
X204386598Y-186321900D01*
X204386598Y-186321900D02*
X204243741Y-186393328D01*
X204243741Y-186393328D02*
X203958027Y-186393328D01*
X203958027Y-186393328D02*
X203815169Y-186321900D01*
X205815170Y-186321900D02*
X205672312Y-186393328D01*
X205672312Y-186393328D02*
X205386598Y-186393328D01*
X205386598Y-186393328D02*
X205243741Y-186321900D01*
X205243741Y-186321900D02*
X205172312Y-186250471D01*
X205172312Y-186250471D02*
X205100884Y-186107614D01*
X205100884Y-186107614D02*
X205100884Y-185679042D01*
X205100884Y-185679042D02*
X205172312Y-185536185D01*
X205172312Y-185536185D02*
X205243741Y-185464757D01*
X205243741Y-185464757D02*
X205386598Y-185393328D01*
X205386598Y-185393328D02*
X205672312Y-185393328D01*
X205672312Y-185393328D02*
X205815170Y-185464757D01*
X206458026Y-186393328D02*
X206458026Y-184893328D01*
X206458026Y-185464757D02*
X206600884Y-185393328D01*
X206600884Y-185393328D02*
X206886598Y-185393328D01*
X206886598Y-185393328D02*
X207029455Y-185464757D01*
X207029455Y-185464757D02*
X207100884Y-185536185D01*
X207100884Y-185536185D02*
X207172312Y-185679042D01*
X207172312Y-185679042D02*
X207172312Y-186107614D01*
X207172312Y-186107614D02*
X207100884Y-186250471D01*
X207100884Y-186250471D02*
X207029455Y-186321900D01*
X207029455Y-186321900D02*
X206886598Y-186393328D01*
X206886598Y-186393328D02*
X206600884Y-186393328D01*
X206600884Y-186393328D02*
X206458026Y-186321900D01*
X177002200Y-181507200D02*
X285002200Y-181507200D01*
X178386598Y-183621900D02*
X178600884Y-183693328D01*
X178600884Y-183693328D02*
X178958026Y-183693328D01*
X178958026Y-183693328D02*
X179100884Y-183621900D01*
X179100884Y-183621900D02*
X179172312Y-183550471D01*
X179172312Y-183550471D02*
X179243741Y-183407614D01*
X179243741Y-183407614D02*
X179243741Y-183264757D01*
X179243741Y-183264757D02*
X179172312Y-183121900D01*
X179172312Y-183121900D02*
X179100884Y-183050471D01*
X179100884Y-183050471D02*
X178958026Y-182979042D01*
X178958026Y-182979042D02*
X178672312Y-182907614D01*
X178672312Y-182907614D02*
X178529455Y-182836185D01*
X178529455Y-182836185D02*
X178458026Y-182764757D01*
X178458026Y-182764757D02*
X178386598Y-182621900D01*
X178386598Y-182621900D02*
X178386598Y-182479042D01*
X178386598Y-182479042D02*
X178458026Y-182336185D01*
X178458026Y-182336185D02*
X178529455Y-182264757D01*
X178529455Y-182264757D02*
X178672312Y-182193328D01*
X178672312Y-182193328D02*
X179029455Y-182193328D01*
X179029455Y-182193328D02*
X179243741Y-182264757D01*
X179886597Y-183693328D02*
X179886597Y-182193328D01*
X180529455Y-183693328D02*
X180529455Y-182907614D01*
X180529455Y-182907614D02*
X180458026Y-182764757D01*
X180458026Y-182764757D02*
X180315169Y-182693328D01*
X180315169Y-182693328D02*
X180100883Y-182693328D01*
X180100883Y-182693328D02*
X179958026Y-182764757D01*
X179958026Y-182764757D02*
X179886597Y-182836185D01*
X181815169Y-183621900D02*
X181672312Y-183693328D01*
X181672312Y-183693328D02*
X181386598Y-183693328D01*
X181386598Y-183693328D02*
X181243740Y-183621900D01*
X181243740Y-183621900D02*
X181172312Y-183479042D01*
X181172312Y-183479042D02*
X181172312Y-182907614D01*
X181172312Y-182907614D02*
X181243740Y-182764757D01*
X181243740Y-182764757D02*
X181386598Y-182693328D01*
X181386598Y-182693328D02*
X181672312Y-182693328D01*
X181672312Y-182693328D02*
X181815169Y-182764757D01*
X181815169Y-182764757D02*
X181886598Y-182907614D01*
X181886598Y-182907614D02*
X181886598Y-183050471D01*
X181886598Y-183050471D02*
X181172312Y-183193328D01*
X183100883Y-183621900D02*
X182958026Y-183693328D01*
X182958026Y-183693328D02*
X182672312Y-183693328D01*
X182672312Y-183693328D02*
X182529454Y-183621900D01*
X182529454Y-183621900D02*
X182458026Y-183479042D01*
X182458026Y-183479042D02*
X182458026Y-182907614D01*
X182458026Y-182907614D02*
X182529454Y-182764757D01*
X182529454Y-182764757D02*
X182672312Y-182693328D01*
X182672312Y-182693328D02*
X182958026Y-182693328D01*
X182958026Y-182693328D02*
X183100883Y-182764757D01*
X183100883Y-182764757D02*
X183172312Y-182907614D01*
X183172312Y-182907614D02*
X183172312Y-183050471D01*
X183172312Y-183050471D02*
X182458026Y-183193328D01*
X183600883Y-182693328D02*
X184172311Y-182693328D01*
X183815168Y-182193328D02*
X183815168Y-183479042D01*
X183815168Y-183479042D02*
X183886597Y-183621900D01*
X183886597Y-183621900D02*
X184029454Y-183693328D01*
X184029454Y-183693328D02*
X184172311Y-183693328D01*
X184672311Y-183550471D02*
X184743740Y-183621900D01*
X184743740Y-183621900D02*
X184672311Y-183693328D01*
X184672311Y-183693328D02*
X184600883Y-183621900D01*
X184600883Y-183621900D02*
X184672311Y-183550471D01*
X184672311Y-183550471D02*
X184672311Y-183693328D01*
X184672311Y-182764757D02*
X184743740Y-182836185D01*
X184743740Y-182836185D02*
X184672311Y-182907614D01*
X184672311Y-182907614D02*
X184600883Y-182836185D01*
X184600883Y-182836185D02*
X184672311Y-182764757D01*
X184672311Y-182764757D02*
X184672311Y-182907614D01*
X197002200Y-191507200D02*
X197002200Y-194507200D01*
X261002200Y-191507200D02*
X261002200Y-198007200D01*
D13*
X172637217Y-63348609D02*
X172303884Y-63348609D01*
X172303884Y-63872419D02*
X172303884Y-62872419D01*
X172303884Y-62872419D02*
X172780074Y-62872419D01*
X173161027Y-63872419D02*
X173161027Y-63205752D01*
X173161027Y-63396228D02*
X173208646Y-63300990D01*
X173208646Y-63300990D02*
X173256265Y-63253371D01*
X173256265Y-63253371D02*
X173351503Y-63205752D01*
X173351503Y-63205752D02*
X173446741Y-63205752D01*
X173922932Y-63872419D02*
X173827694Y-63824800D01*
X173827694Y-63824800D02*
X173780075Y-63777180D01*
X173780075Y-63777180D02*
X173732456Y-63681942D01*
X173732456Y-63681942D02*
X173732456Y-63396228D01*
X173732456Y-63396228D02*
X173780075Y-63300990D01*
X173780075Y-63300990D02*
X173827694Y-63253371D01*
X173827694Y-63253371D02*
X173922932Y-63205752D01*
X173922932Y-63205752D02*
X174065789Y-63205752D01*
X174065789Y-63205752D02*
X174161027Y-63253371D01*
X174161027Y-63253371D02*
X174208646Y-63300990D01*
X174208646Y-63300990D02*
X174256265Y-63396228D01*
X174256265Y-63396228D02*
X174256265Y-63681942D01*
X174256265Y-63681942D02*
X174208646Y-63777180D01*
X174208646Y-63777180D02*
X174161027Y-63824800D01*
X174161027Y-63824800D02*
X174065789Y-63872419D01*
X174065789Y-63872419D02*
X173922932Y-63872419D01*
X174684837Y-63872419D02*
X174684837Y-63205752D01*
X174684837Y-63300990D02*
X174732456Y-63253371D01*
X174732456Y-63253371D02*
X174827694Y-63205752D01*
X174827694Y-63205752D02*
X174970551Y-63205752D01*
X174970551Y-63205752D02*
X175065789Y-63253371D01*
X175065789Y-63253371D02*
X175113408Y-63348609D01*
X175113408Y-63348609D02*
X175113408Y-63872419D01*
X175113408Y-63348609D02*
X175161027Y-63253371D01*
X175161027Y-63253371D02*
X175256265Y-63205752D01*
X175256265Y-63205752D02*
X175399122Y-63205752D01*
X175399122Y-63205752D02*
X175494361Y-63253371D01*
X175494361Y-63253371D02*
X175541980Y-63348609D01*
X175541980Y-63348609D02*
X175541980Y-63872419D01*
X176780075Y-63872419D02*
X176780075Y-62872419D01*
X176780075Y-62872419D02*
X177351503Y-63872419D01*
X177351503Y-63872419D02*
X177351503Y-62872419D01*
X177827694Y-63872419D02*
X177827694Y-63205752D01*
X177827694Y-62872419D02*
X177780075Y-62920038D01*
X177780075Y-62920038D02*
X177827694Y-62967657D01*
X177827694Y-62967657D02*
X177875313Y-62920038D01*
X177875313Y-62920038D02*
X177827694Y-62872419D01*
X177827694Y-62872419D02*
X177827694Y-62967657D01*
X178732455Y-63824800D02*
X178637217Y-63872419D01*
X178637217Y-63872419D02*
X178446741Y-63872419D01*
X178446741Y-63872419D02*
X178351503Y-63824800D01*
X178351503Y-63824800D02*
X178303884Y-63777180D01*
X178303884Y-63777180D02*
X178256265Y-63681942D01*
X178256265Y-63681942D02*
X178256265Y-63396228D01*
X178256265Y-63396228D02*
X178303884Y-63300990D01*
X178303884Y-63300990D02*
X178351503Y-63253371D01*
X178351503Y-63253371D02*
X178446741Y-63205752D01*
X178446741Y-63205752D02*
X178637217Y-63205752D01*
X178637217Y-63205752D02*
X178732455Y-63253371D01*
X179161027Y-63872419D02*
X179161027Y-62872419D01*
X179256265Y-63491466D02*
X179541979Y-63872419D01*
X179541979Y-63205752D02*
X179161027Y-63586704D01*
X121280074Y-63872419D02*
X120803884Y-63872419D01*
X120803884Y-63872419D02*
X120803884Y-62872419D01*
X121756265Y-63872419D02*
X121661027Y-63824800D01*
X121661027Y-63824800D02*
X121613408Y-63777180D01*
X121613408Y-63777180D02*
X121565789Y-63681942D01*
X121565789Y-63681942D02*
X121565789Y-63396228D01*
X121565789Y-63396228D02*
X121613408Y-63300990D01*
X121613408Y-63300990D02*
X121661027Y-63253371D01*
X121661027Y-63253371D02*
X121756265Y-63205752D01*
X121756265Y-63205752D02*
X121899122Y-63205752D01*
X121899122Y-63205752D02*
X121994360Y-63253371D01*
X121994360Y-63253371D02*
X122041979Y-63300990D01*
X122041979Y-63300990D02*
X122089598Y-63396228D01*
X122089598Y-63396228D02*
X122089598Y-63681942D01*
X122089598Y-63681942D02*
X122041979Y-63777180D01*
X122041979Y-63777180D02*
X121994360Y-63824800D01*
X121994360Y-63824800D02*
X121899122Y-63872419D01*
X121899122Y-63872419D02*
X121756265Y-63872419D01*
X122422932Y-63205752D02*
X122661027Y-63872419D01*
X122661027Y-63872419D02*
X122899122Y-63205752D01*
X123661027Y-63824800D02*
X123565789Y-63872419D01*
X123565789Y-63872419D02*
X123375313Y-63872419D01*
X123375313Y-63872419D02*
X123280075Y-63824800D01*
X123280075Y-63824800D02*
X123232456Y-63729561D01*
X123232456Y-63729561D02*
X123232456Y-63348609D01*
X123232456Y-63348609D02*
X123280075Y-63253371D01*
X123280075Y-63253371D02*
X123375313Y-63205752D01*
X123375313Y-63205752D02*
X123565789Y-63205752D01*
X123565789Y-63205752D02*
X123661027Y-63253371D01*
X123661027Y-63253371D02*
X123708646Y-63348609D01*
X123708646Y-63348609D02*
X123708646Y-63443847D01*
X123708646Y-63443847D02*
X123232456Y-63539085D01*
X124803885Y-63205752D02*
X125041980Y-63872419D01*
X125280075Y-63205752D02*
X125041980Y-63872419D01*
X125041980Y-63872419D02*
X124946742Y-64110514D01*
X124946742Y-64110514D02*
X124899123Y-64158133D01*
X124899123Y-64158133D02*
X124803885Y-64205752D01*
X126089599Y-63872419D02*
X126089599Y-63348609D01*
X126089599Y-63348609D02*
X126041980Y-63253371D01*
X126041980Y-63253371D02*
X125946742Y-63205752D01*
X125946742Y-63205752D02*
X125756266Y-63205752D01*
X125756266Y-63205752D02*
X125661028Y-63253371D01*
X126089599Y-63824800D02*
X125994361Y-63872419D01*
X125994361Y-63872419D02*
X125756266Y-63872419D01*
X125756266Y-63872419D02*
X125661028Y-63824800D01*
X125661028Y-63824800D02*
X125613409Y-63729561D01*
X125613409Y-63729561D02*
X125613409Y-63634323D01*
X125613409Y-63634323D02*
X125661028Y-63539085D01*
X125661028Y-63539085D02*
X125756266Y-63491466D01*
X125756266Y-63491466D02*
X125994361Y-63491466D01*
X125994361Y-63491466D02*
X126089599Y-63443847D01*
D10*
X170055714Y-117494819D02*
X170055714Y-116494819D01*
X170055714Y-116494819D02*
X170293809Y-116494819D01*
X170293809Y-116494819D02*
X170436666Y-116542438D01*
X170436666Y-116542438D02*
X170531904Y-116637676D01*
X170531904Y-116637676D02*
X170579523Y-116732914D01*
X170579523Y-116732914D02*
X170627142Y-116923390D01*
X170627142Y-116923390D02*
X170627142Y-117066247D01*
X170627142Y-117066247D02*
X170579523Y-117256723D01*
X170579523Y-117256723D02*
X170531904Y-117351961D01*
X170531904Y-117351961D02*
X170436666Y-117447200D01*
X170436666Y-117447200D02*
X170293809Y-117494819D01*
X170293809Y-117494819D02*
X170055714Y-117494819D01*
X171579523Y-117494819D02*
X171008095Y-117494819D01*
X171293809Y-117494819D02*
X171293809Y-116494819D01*
X171293809Y-116494819D02*
X171198571Y-116637676D01*
X171198571Y-116637676D02*
X171103333Y-116732914D01*
X171103333Y-116732914D02*
X171008095Y-116780533D01*
X172531904Y-117494819D02*
X171960476Y-117494819D01*
X172246190Y-117494819D02*
X172246190Y-116494819D01*
X172246190Y-116494819D02*
X172150952Y-116637676D01*
X172150952Y-116637676D02*
X172055714Y-116732914D01*
X172055714Y-116732914D02*
X171960476Y-116780533D01*
X131531905Y-68494819D02*
X131531905Y-67494819D01*
X131531905Y-67494819D02*
X131770000Y-67494819D01*
X131770000Y-67494819D02*
X131912857Y-67542438D01*
X131912857Y-67542438D02*
X132008095Y-67637676D01*
X132008095Y-67637676D02*
X132055714Y-67732914D01*
X132055714Y-67732914D02*
X132103333Y-67923390D01*
X132103333Y-67923390D02*
X132103333Y-68066247D01*
X132103333Y-68066247D02*
X132055714Y-68256723D01*
X132055714Y-68256723D02*
X132008095Y-68351961D01*
X132008095Y-68351961D02*
X131912857Y-68447200D01*
X131912857Y-68447200D02*
X131770000Y-68494819D01*
X131770000Y-68494819D02*
X131531905Y-68494819D01*
X133055714Y-68494819D02*
X132484286Y-68494819D01*
X132770000Y-68494819D02*
X132770000Y-67494819D01*
X132770000Y-67494819D02*
X132674762Y-67637676D01*
X132674762Y-67637676D02*
X132579524Y-67732914D01*
X132579524Y-67732914D02*
X132484286Y-67780533D01*
X118531905Y-81494819D02*
X118531905Y-80494819D01*
X118531905Y-80494819D02*
X118770000Y-80494819D01*
X118770000Y-80494819D02*
X118912857Y-80542438D01*
X118912857Y-80542438D02*
X119008095Y-80637676D01*
X119008095Y-80637676D02*
X119055714Y-80732914D01*
X119055714Y-80732914D02*
X119103333Y-80923390D01*
X119103333Y-80923390D02*
X119103333Y-81066247D01*
X119103333Y-81066247D02*
X119055714Y-81256723D01*
X119055714Y-81256723D02*
X119008095Y-81351961D01*
X119008095Y-81351961D02*
X118912857Y-81447200D01*
X118912857Y-81447200D02*
X118770000Y-81494819D01*
X118770000Y-81494819D02*
X118531905Y-81494819D01*
X119484286Y-80590057D02*
X119531905Y-80542438D01*
X119531905Y-80542438D02*
X119627143Y-80494819D01*
X119627143Y-80494819D02*
X119865238Y-80494819D01*
X119865238Y-80494819D02*
X119960476Y-80542438D01*
X119960476Y-80542438D02*
X120008095Y-80590057D01*
X120008095Y-80590057D02*
X120055714Y-80685295D01*
X120055714Y-80685295D02*
X120055714Y-80780533D01*
X120055714Y-80780533D02*
X120008095Y-80923390D01*
X120008095Y-80923390D02*
X119436667Y-81494819D01*
X119436667Y-81494819D02*
X120055714Y-81494819D01*
X153833333Y-82859580D02*
X153785714Y-82907200D01*
X153785714Y-82907200D02*
X153642857Y-82954819D01*
X153642857Y-82954819D02*
X153547619Y-82954819D01*
X153547619Y-82954819D02*
X153404762Y-82907200D01*
X153404762Y-82907200D02*
X153309524Y-82811961D01*
X153309524Y-82811961D02*
X153261905Y-82716723D01*
X153261905Y-82716723D02*
X153214286Y-82526247D01*
X153214286Y-82526247D02*
X153214286Y-82383390D01*
X153214286Y-82383390D02*
X153261905Y-82192914D01*
X153261905Y-82192914D02*
X153309524Y-82097676D01*
X153309524Y-82097676D02*
X153404762Y-82002438D01*
X153404762Y-82002438D02*
X153547619Y-81954819D01*
X153547619Y-81954819D02*
X153642857Y-81954819D01*
X153642857Y-81954819D02*
X153785714Y-82002438D01*
X153785714Y-82002438D02*
X153833333Y-82050057D01*
X154785714Y-82954819D02*
X154214286Y-82954819D01*
X154500000Y-82954819D02*
X154500000Y-81954819D01*
X154500000Y-81954819D02*
X154404762Y-82097676D01*
X154404762Y-82097676D02*
X154309524Y-82192914D01*
X154309524Y-82192914D02*
X154214286Y-82240533D01*
X151083333Y-115609580D02*
X151035714Y-115657200D01*
X151035714Y-115657200D02*
X150892857Y-115704819D01*
X150892857Y-115704819D02*
X150797619Y-115704819D01*
X150797619Y-115704819D02*
X150654762Y-115657200D01*
X150654762Y-115657200D02*
X150559524Y-115561961D01*
X150559524Y-115561961D02*
X150511905Y-115466723D01*
X150511905Y-115466723D02*
X150464286Y-115276247D01*
X150464286Y-115276247D02*
X150464286Y-115133390D01*
X150464286Y-115133390D02*
X150511905Y-114942914D01*
X150511905Y-114942914D02*
X150559524Y-114847676D01*
X150559524Y-114847676D02*
X150654762Y-114752438D01*
X150654762Y-114752438D02*
X150797619Y-114704819D01*
X150797619Y-114704819D02*
X150892857Y-114704819D01*
X150892857Y-114704819D02*
X151035714Y-114752438D01*
X151035714Y-114752438D02*
X151083333Y-114800057D01*
X151416667Y-114704819D02*
X152035714Y-114704819D01*
X152035714Y-114704819D02*
X151702381Y-115085771D01*
X151702381Y-115085771D02*
X151845238Y-115085771D01*
X151845238Y-115085771D02*
X151940476Y-115133390D01*
X151940476Y-115133390D02*
X151988095Y-115181009D01*
X151988095Y-115181009D02*
X152035714Y-115276247D01*
X152035714Y-115276247D02*
X152035714Y-115514342D01*
X152035714Y-115514342D02*
X151988095Y-115609580D01*
X151988095Y-115609580D02*
X151940476Y-115657200D01*
X151940476Y-115657200D02*
X151845238Y-115704819D01*
X151845238Y-115704819D02*
X151559524Y-115704819D01*
X151559524Y-115704819D02*
X151464286Y-115657200D01*
X151464286Y-115657200D02*
X151416667Y-115609580D01*
X169531905Y-68494819D02*
X169531905Y-67494819D01*
X169531905Y-67494819D02*
X169770000Y-67494819D01*
X169770000Y-67494819D02*
X169912857Y-67542438D01*
X169912857Y-67542438D02*
X170008095Y-67637676D01*
X170008095Y-67637676D02*
X170055714Y-67732914D01*
X170055714Y-67732914D02*
X170103333Y-67923390D01*
X170103333Y-67923390D02*
X170103333Y-68066247D01*
X170103333Y-68066247D02*
X170055714Y-68256723D01*
X170055714Y-68256723D02*
X170008095Y-68351961D01*
X170008095Y-68351961D02*
X169912857Y-68447200D01*
X169912857Y-68447200D02*
X169770000Y-68494819D01*
X169770000Y-68494819D02*
X169531905Y-68494819D01*
X171008095Y-67494819D02*
X170531905Y-67494819D01*
X170531905Y-67494819D02*
X170484286Y-67971009D01*
X170484286Y-67971009D02*
X170531905Y-67923390D01*
X170531905Y-67923390D02*
X170627143Y-67875771D01*
X170627143Y-67875771D02*
X170865238Y-67875771D01*
X170865238Y-67875771D02*
X170960476Y-67923390D01*
X170960476Y-67923390D02*
X171008095Y-67971009D01*
X171008095Y-67971009D02*
X171055714Y-68066247D01*
X171055714Y-68066247D02*
X171055714Y-68304342D01*
X171055714Y-68304342D02*
X171008095Y-68399580D01*
X171008095Y-68399580D02*
X170960476Y-68447200D01*
X170960476Y-68447200D02*
X170865238Y-68494819D01*
X170865238Y-68494819D02*
X170627143Y-68494819D01*
X170627143Y-68494819D02*
X170531905Y-68447200D01*
X170531905Y-68447200D02*
X170484286Y-68399580D01*
X182531905Y-81494819D02*
X182531905Y-80494819D01*
X182531905Y-80494819D02*
X182770000Y-80494819D01*
X182770000Y-80494819D02*
X182912857Y-80542438D01*
X182912857Y-80542438D02*
X183008095Y-80637676D01*
X183008095Y-80637676D02*
X183055714Y-80732914D01*
X183055714Y-80732914D02*
X183103333Y-80923390D01*
X183103333Y-80923390D02*
X183103333Y-81066247D01*
X183103333Y-81066247D02*
X183055714Y-81256723D01*
X183055714Y-81256723D02*
X183008095Y-81351961D01*
X183008095Y-81351961D02*
X182912857Y-81447200D01*
X182912857Y-81447200D02*
X182770000Y-81494819D01*
X182770000Y-81494819D02*
X182531905Y-81494819D01*
X183960476Y-80494819D02*
X183770000Y-80494819D01*
X183770000Y-80494819D02*
X183674762Y-80542438D01*
X183674762Y-80542438D02*
X183627143Y-80590057D01*
X183627143Y-80590057D02*
X183531905Y-80732914D01*
X183531905Y-80732914D02*
X183484286Y-80923390D01*
X183484286Y-80923390D02*
X183484286Y-81304342D01*
X183484286Y-81304342D02*
X183531905Y-81399580D01*
X183531905Y-81399580D02*
X183579524Y-81447200D01*
X183579524Y-81447200D02*
X183674762Y-81494819D01*
X183674762Y-81494819D02*
X183865238Y-81494819D01*
X183865238Y-81494819D02*
X183960476Y-81447200D01*
X183960476Y-81447200D02*
X184008095Y-81399580D01*
X184008095Y-81399580D02*
X184055714Y-81304342D01*
X184055714Y-81304342D02*
X184055714Y-81066247D01*
X184055714Y-81066247D02*
X184008095Y-80971009D01*
X184008095Y-80971009D02*
X183960476Y-80923390D01*
X183960476Y-80923390D02*
X183865238Y-80875771D01*
X183865238Y-80875771D02*
X183674762Y-80875771D01*
X183674762Y-80875771D02*
X183579524Y-80923390D01*
X183579524Y-80923390D02*
X183531905Y-80971009D01*
X183531905Y-80971009D02*
X183484286Y-81066247D01*
X161357142Y-120584819D02*
X161023809Y-120108628D01*
X160785714Y-120584819D02*
X160785714Y-119584819D01*
X160785714Y-119584819D02*
X161166666Y-119584819D01*
X161166666Y-119584819D02*
X161261904Y-119632438D01*
X161261904Y-119632438D02*
X161309523Y-119680057D01*
X161309523Y-119680057D02*
X161357142Y-119775295D01*
X161357142Y-119775295D02*
X161357142Y-119918152D01*
X161357142Y-119918152D02*
X161309523Y-120013390D01*
X161309523Y-120013390D02*
X161261904Y-120061009D01*
X161261904Y-120061009D02*
X161166666Y-120108628D01*
X161166666Y-120108628D02*
X160785714Y-120108628D01*
X161738095Y-119680057D02*
X161785714Y-119632438D01*
X161785714Y-119632438D02*
X161880952Y-119584819D01*
X161880952Y-119584819D02*
X162119047Y-119584819D01*
X162119047Y-119584819D02*
X162214285Y-119632438D01*
X162214285Y-119632438D02*
X162261904Y-119680057D01*
X162261904Y-119680057D02*
X162309523Y-119775295D01*
X162309523Y-119775295D02*
X162309523Y-119870533D01*
X162309523Y-119870533D02*
X162261904Y-120013390D01*
X162261904Y-120013390D02*
X161690476Y-120584819D01*
X161690476Y-120584819D02*
X162309523Y-120584819D01*
X163261904Y-120584819D02*
X162690476Y-120584819D01*
X162976190Y-120584819D02*
X162976190Y-119584819D01*
X162976190Y-119584819D02*
X162880952Y-119727676D01*
X162880952Y-119727676D02*
X162785714Y-119822914D01*
X162785714Y-119822914D02*
X162690476Y-119870533D01*
X161055714Y-127494819D02*
X161055714Y-126494819D01*
X161055714Y-126494819D02*
X161293809Y-126494819D01*
X161293809Y-126494819D02*
X161436666Y-126542438D01*
X161436666Y-126542438D02*
X161531904Y-126637676D01*
X161531904Y-126637676D02*
X161579523Y-126732914D01*
X161579523Y-126732914D02*
X161627142Y-126923390D01*
X161627142Y-126923390D02*
X161627142Y-127066247D01*
X161627142Y-127066247D02*
X161579523Y-127256723D01*
X161579523Y-127256723D02*
X161531904Y-127351961D01*
X161531904Y-127351961D02*
X161436666Y-127447200D01*
X161436666Y-127447200D02*
X161293809Y-127494819D01*
X161293809Y-127494819D02*
X161055714Y-127494819D01*
X162579523Y-127494819D02*
X162008095Y-127494819D01*
X162293809Y-127494819D02*
X162293809Y-126494819D01*
X162293809Y-126494819D02*
X162198571Y-126637676D01*
X162198571Y-126637676D02*
X162103333Y-126732914D01*
X162103333Y-126732914D02*
X162008095Y-126780533D01*
X163436666Y-126828152D02*
X163436666Y-127494819D01*
X163198571Y-126447200D02*
X162960476Y-127161485D01*
X162960476Y-127161485D02*
X163579523Y-127161485D01*
X188055714Y-93494819D02*
X188055714Y-92494819D01*
X188055714Y-92494819D02*
X188293809Y-92494819D01*
X188293809Y-92494819D02*
X188436666Y-92542438D01*
X188436666Y-92542438D02*
X188531904Y-92637676D01*
X188531904Y-92637676D02*
X188579523Y-92732914D01*
X188579523Y-92732914D02*
X188627142Y-92923390D01*
X188627142Y-92923390D02*
X188627142Y-93066247D01*
X188627142Y-93066247D02*
X188579523Y-93256723D01*
X188579523Y-93256723D02*
X188531904Y-93351961D01*
X188531904Y-93351961D02*
X188436666Y-93447200D01*
X188436666Y-93447200D02*
X188293809Y-93494819D01*
X188293809Y-93494819D02*
X188055714Y-93494819D01*
X189579523Y-93494819D02*
X189008095Y-93494819D01*
X189293809Y-93494819D02*
X189293809Y-92494819D01*
X189293809Y-92494819D02*
X189198571Y-92637676D01*
X189198571Y-92637676D02*
X189103333Y-92732914D01*
X189103333Y-92732914D02*
X189008095Y-92780533D01*
X190198571Y-92494819D02*
X190293809Y-92494819D01*
X190293809Y-92494819D02*
X190389047Y-92542438D01*
X190389047Y-92542438D02*
X190436666Y-92590057D01*
X190436666Y-92590057D02*
X190484285Y-92685295D01*
X190484285Y-92685295D02*
X190531904Y-92875771D01*
X190531904Y-92875771D02*
X190531904Y-93113866D01*
X190531904Y-93113866D02*
X190484285Y-93304342D01*
X190484285Y-93304342D02*
X190436666Y-93399580D01*
X190436666Y-93399580D02*
X190389047Y-93447200D01*
X190389047Y-93447200D02*
X190293809Y-93494819D01*
X190293809Y-93494819D02*
X190198571Y-93494819D01*
X190198571Y-93494819D02*
X190103333Y-93447200D01*
X190103333Y-93447200D02*
X190055714Y-93399580D01*
X190055714Y-93399580D02*
X190008095Y-93304342D01*
X190008095Y-93304342D02*
X189960476Y-93113866D01*
X189960476Y-93113866D02*
X189960476Y-92875771D01*
X189960476Y-92875771D02*
X190008095Y-92685295D01*
X190008095Y-92685295D02*
X190055714Y-92590057D01*
X190055714Y-92590057D02*
X190103333Y-92542438D01*
X190103333Y-92542438D02*
X190198571Y-92494819D01*
X139055714Y-127494819D02*
X139055714Y-126494819D01*
X139055714Y-126494819D02*
X139293809Y-126494819D01*
X139293809Y-126494819D02*
X139436666Y-126542438D01*
X139436666Y-126542438D02*
X139531904Y-126637676D01*
X139531904Y-126637676D02*
X139579523Y-126732914D01*
X139579523Y-126732914D02*
X139627142Y-126923390D01*
X139627142Y-126923390D02*
X139627142Y-127066247D01*
X139627142Y-127066247D02*
X139579523Y-127256723D01*
X139579523Y-127256723D02*
X139531904Y-127351961D01*
X139531904Y-127351961D02*
X139436666Y-127447200D01*
X139436666Y-127447200D02*
X139293809Y-127494819D01*
X139293809Y-127494819D02*
X139055714Y-127494819D01*
X140579523Y-127494819D02*
X140008095Y-127494819D01*
X140293809Y-127494819D02*
X140293809Y-126494819D01*
X140293809Y-126494819D02*
X140198571Y-126637676D01*
X140198571Y-126637676D02*
X140103333Y-126732914D01*
X140103333Y-126732914D02*
X140008095Y-126780533D01*
X140912857Y-126494819D02*
X141531904Y-126494819D01*
X141531904Y-126494819D02*
X141198571Y-126875771D01*
X141198571Y-126875771D02*
X141341428Y-126875771D01*
X141341428Y-126875771D02*
X141436666Y-126923390D01*
X141436666Y-126923390D02*
X141484285Y-126971009D01*
X141484285Y-126971009D02*
X141531904Y-127066247D01*
X141531904Y-127066247D02*
X141531904Y-127304342D01*
X141531904Y-127304342D02*
X141484285Y-127399580D01*
X141484285Y-127399580D02*
X141436666Y-127447200D01*
X141436666Y-127447200D02*
X141341428Y-127494819D01*
X141341428Y-127494819D02*
X141055714Y-127494819D01*
X141055714Y-127494819D02*
X140960476Y-127447200D01*
X140960476Y-127447200D02*
X140912857Y-127399580D01*
X140531905Y-75494819D02*
X140531905Y-74494819D01*
X140531905Y-74494819D02*
X140770000Y-74494819D01*
X140770000Y-74494819D02*
X140912857Y-74542438D01*
X140912857Y-74542438D02*
X141008095Y-74637676D01*
X141008095Y-74637676D02*
X141055714Y-74732914D01*
X141055714Y-74732914D02*
X141103333Y-74923390D01*
X141103333Y-74923390D02*
X141103333Y-75066247D01*
X141103333Y-75066247D02*
X141055714Y-75256723D01*
X141055714Y-75256723D02*
X141008095Y-75351961D01*
X141008095Y-75351961D02*
X140912857Y-75447200D01*
X140912857Y-75447200D02*
X140770000Y-75494819D01*
X140770000Y-75494819D02*
X140531905Y-75494819D01*
X141436667Y-74494819D02*
X142055714Y-74494819D01*
X142055714Y-74494819D02*
X141722381Y-74875771D01*
X141722381Y-74875771D02*
X141865238Y-74875771D01*
X141865238Y-74875771D02*
X141960476Y-74923390D01*
X141960476Y-74923390D02*
X142008095Y-74971009D01*
X142008095Y-74971009D02*
X142055714Y-75066247D01*
X142055714Y-75066247D02*
X142055714Y-75304342D01*
X142055714Y-75304342D02*
X142008095Y-75399580D01*
X142008095Y-75399580D02*
X141960476Y-75447200D01*
X141960476Y-75447200D02*
X141865238Y-75494819D01*
X141865238Y-75494819D02*
X141579524Y-75494819D01*
X141579524Y-75494819D02*
X141484286Y-75447200D01*
X141484286Y-75447200D02*
X141436667Y-75399580D01*
X132928095Y-102004819D02*
X132928095Y-102814342D01*
X132928095Y-102814342D02*
X132975714Y-102909580D01*
X132975714Y-102909580D02*
X133023333Y-102957200D01*
X133023333Y-102957200D02*
X133118571Y-103004819D01*
X133118571Y-103004819D02*
X133309047Y-103004819D01*
X133309047Y-103004819D02*
X133404285Y-102957200D01*
X133404285Y-102957200D02*
X133451904Y-102909580D01*
X133451904Y-102909580D02*
X133499523Y-102814342D01*
X133499523Y-102814342D02*
X133499523Y-102004819D01*
X134499523Y-103004819D02*
X133928095Y-103004819D01*
X134213809Y-103004819D02*
X134213809Y-102004819D01*
X134213809Y-102004819D02*
X134118571Y-102147676D01*
X134118571Y-102147676D02*
X134023333Y-102242914D01*
X134023333Y-102242914D02*
X133928095Y-102290533D01*
X150055714Y-134494819D02*
X150055714Y-133494819D01*
X150055714Y-133494819D02*
X150293809Y-133494819D01*
X150293809Y-133494819D02*
X150436666Y-133542438D01*
X150436666Y-133542438D02*
X150531904Y-133637676D01*
X150531904Y-133637676D02*
X150579523Y-133732914D01*
X150579523Y-133732914D02*
X150627142Y-133923390D01*
X150627142Y-133923390D02*
X150627142Y-134066247D01*
X150627142Y-134066247D02*
X150579523Y-134256723D01*
X150579523Y-134256723D02*
X150531904Y-134351961D01*
X150531904Y-134351961D02*
X150436666Y-134447200D01*
X150436666Y-134447200D02*
X150293809Y-134494819D01*
X150293809Y-134494819D02*
X150055714Y-134494819D01*
X151579523Y-134494819D02*
X151008095Y-134494819D01*
X151293809Y-134494819D02*
X151293809Y-133494819D01*
X151293809Y-133494819D02*
X151198571Y-133637676D01*
X151198571Y-133637676D02*
X151103333Y-133732914D01*
X151103333Y-133732914D02*
X151008095Y-133780533D01*
X152484285Y-133494819D02*
X152008095Y-133494819D01*
X152008095Y-133494819D02*
X151960476Y-133971009D01*
X151960476Y-133971009D02*
X152008095Y-133923390D01*
X152008095Y-133923390D02*
X152103333Y-133875771D01*
X152103333Y-133875771D02*
X152341428Y-133875771D01*
X152341428Y-133875771D02*
X152436666Y-133923390D01*
X152436666Y-133923390D02*
X152484285Y-133971009D01*
X152484285Y-133971009D02*
X152531904Y-134066247D01*
X152531904Y-134066247D02*
X152531904Y-134304342D01*
X152531904Y-134304342D02*
X152484285Y-134399580D01*
X152484285Y-134399580D02*
X152436666Y-134447200D01*
X152436666Y-134447200D02*
X152341428Y-134494819D01*
X152341428Y-134494819D02*
X152103333Y-134494819D01*
X152103333Y-134494819D02*
X152008095Y-134447200D01*
X152008095Y-134447200D02*
X151960476Y-134399580D01*
X168174761Y-101990057D02*
X168079523Y-101942438D01*
X168079523Y-101942438D02*
X167984285Y-101847200D01*
X167984285Y-101847200D02*
X167841428Y-101704342D01*
X167841428Y-101704342D02*
X167746190Y-101656723D01*
X167746190Y-101656723D02*
X167650952Y-101656723D01*
X167698571Y-101894819D02*
X167603333Y-101847200D01*
X167603333Y-101847200D02*
X167508095Y-101751961D01*
X167508095Y-101751961D02*
X167460476Y-101561485D01*
X167460476Y-101561485D02*
X167460476Y-101228152D01*
X167460476Y-101228152D02*
X167508095Y-101037676D01*
X167508095Y-101037676D02*
X167603333Y-100942438D01*
X167603333Y-100942438D02*
X167698571Y-100894819D01*
X167698571Y-100894819D02*
X167889047Y-100894819D01*
X167889047Y-100894819D02*
X167984285Y-100942438D01*
X167984285Y-100942438D02*
X168079523Y-101037676D01*
X168079523Y-101037676D02*
X168127142Y-101228152D01*
X168127142Y-101228152D02*
X168127142Y-101561485D01*
X168127142Y-101561485D02*
X168079523Y-101751961D01*
X168079523Y-101751961D02*
X167984285Y-101847200D01*
X167984285Y-101847200D02*
X167889047Y-101894819D01*
X167889047Y-101894819D02*
X167698571Y-101894819D01*
X169079523Y-101894819D02*
X168508095Y-101894819D01*
X168793809Y-101894819D02*
X168793809Y-100894819D01*
X168793809Y-100894819D02*
X168698571Y-101037676D01*
X168698571Y-101037676D02*
X168603333Y-101132914D01*
X168603333Y-101132914D02*
X168508095Y-101180533D01*
X112531905Y-93494819D02*
X112531905Y-92494819D01*
X112531905Y-92494819D02*
X112770000Y-92494819D01*
X112770000Y-92494819D02*
X112912857Y-92542438D01*
X112912857Y-92542438D02*
X113008095Y-92637676D01*
X113008095Y-92637676D02*
X113055714Y-92732914D01*
X113055714Y-92732914D02*
X113103333Y-92923390D01*
X113103333Y-92923390D02*
X113103333Y-93066247D01*
X113103333Y-93066247D02*
X113055714Y-93256723D01*
X113055714Y-93256723D02*
X113008095Y-93351961D01*
X113008095Y-93351961D02*
X112912857Y-93447200D01*
X112912857Y-93447200D02*
X112770000Y-93494819D01*
X112770000Y-93494819D02*
X112531905Y-93494819D01*
X113674762Y-92923390D02*
X113579524Y-92875771D01*
X113579524Y-92875771D02*
X113531905Y-92828152D01*
X113531905Y-92828152D02*
X113484286Y-92732914D01*
X113484286Y-92732914D02*
X113484286Y-92685295D01*
X113484286Y-92685295D02*
X113531905Y-92590057D01*
X113531905Y-92590057D02*
X113579524Y-92542438D01*
X113579524Y-92542438D02*
X113674762Y-92494819D01*
X113674762Y-92494819D02*
X113865238Y-92494819D01*
X113865238Y-92494819D02*
X113960476Y-92542438D01*
X113960476Y-92542438D02*
X114008095Y-92590057D01*
X114008095Y-92590057D02*
X114055714Y-92685295D01*
X114055714Y-92685295D02*
X114055714Y-92732914D01*
X114055714Y-92732914D02*
X114008095Y-92828152D01*
X114008095Y-92828152D02*
X113960476Y-92875771D01*
X113960476Y-92875771D02*
X113865238Y-92923390D01*
X113865238Y-92923390D02*
X113674762Y-92923390D01*
X113674762Y-92923390D02*
X113579524Y-92971009D01*
X113579524Y-92971009D02*
X113531905Y-93018628D01*
X113531905Y-93018628D02*
X113484286Y-93113866D01*
X113484286Y-93113866D02*
X113484286Y-93304342D01*
X113484286Y-93304342D02*
X113531905Y-93399580D01*
X113531905Y-93399580D02*
X113579524Y-93447200D01*
X113579524Y-93447200D02*
X113674762Y-93494819D01*
X113674762Y-93494819D02*
X113865238Y-93494819D01*
X113865238Y-93494819D02*
X113960476Y-93447200D01*
X113960476Y-93447200D02*
X114008095Y-93399580D01*
X114008095Y-93399580D02*
X114055714Y-93304342D01*
X114055714Y-93304342D02*
X114055714Y-93113866D01*
X114055714Y-93113866D02*
X114008095Y-93018628D01*
X114008095Y-93018628D02*
X113960476Y-92971009D01*
X113960476Y-92971009D02*
X113865238Y-92923390D01*
X140047142Y-122084819D02*
X139713809Y-121608628D01*
X139475714Y-122084819D02*
X139475714Y-121084819D01*
X139475714Y-121084819D02*
X139856666Y-121084819D01*
X139856666Y-121084819D02*
X139951904Y-121132438D01*
X139951904Y-121132438D02*
X139999523Y-121180057D01*
X139999523Y-121180057D02*
X140047142Y-121275295D01*
X140047142Y-121275295D02*
X140047142Y-121418152D01*
X140047142Y-121418152D02*
X139999523Y-121513390D01*
X139999523Y-121513390D02*
X139951904Y-121561009D01*
X139951904Y-121561009D02*
X139856666Y-121608628D01*
X139856666Y-121608628D02*
X139475714Y-121608628D01*
X140428095Y-121180057D02*
X140475714Y-121132438D01*
X140475714Y-121132438D02*
X140570952Y-121084819D01*
X140570952Y-121084819D02*
X140809047Y-121084819D01*
X140809047Y-121084819D02*
X140904285Y-121132438D01*
X140904285Y-121132438D02*
X140951904Y-121180057D01*
X140951904Y-121180057D02*
X140999523Y-121275295D01*
X140999523Y-121275295D02*
X140999523Y-121370533D01*
X140999523Y-121370533D02*
X140951904Y-121513390D01*
X140951904Y-121513390D02*
X140380476Y-122084819D01*
X140380476Y-122084819D02*
X140999523Y-122084819D01*
X141332857Y-121084819D02*
X141951904Y-121084819D01*
X141951904Y-121084819D02*
X141618571Y-121465771D01*
X141618571Y-121465771D02*
X141761428Y-121465771D01*
X141761428Y-121465771D02*
X141856666Y-121513390D01*
X141856666Y-121513390D02*
X141904285Y-121561009D01*
X141904285Y-121561009D02*
X141951904Y-121656247D01*
X141951904Y-121656247D02*
X141951904Y-121894342D01*
X141951904Y-121894342D02*
X141904285Y-121989580D01*
X141904285Y-121989580D02*
X141856666Y-122037200D01*
X141856666Y-122037200D02*
X141761428Y-122084819D01*
X141761428Y-122084819D02*
X141475714Y-122084819D01*
X141475714Y-122084819D02*
X141380476Y-122037200D01*
X141380476Y-122037200D02*
X141332857Y-121989580D01*
X130531905Y-117494819D02*
X130531905Y-116494819D01*
X130531905Y-116494819D02*
X130770000Y-116494819D01*
X130770000Y-116494819D02*
X130912857Y-116542438D01*
X130912857Y-116542438D02*
X131008095Y-116637676D01*
X131008095Y-116637676D02*
X131055714Y-116732914D01*
X131055714Y-116732914D02*
X131103333Y-116923390D01*
X131103333Y-116923390D02*
X131103333Y-117066247D01*
X131103333Y-117066247D02*
X131055714Y-117256723D01*
X131055714Y-117256723D02*
X131008095Y-117351961D01*
X131008095Y-117351961D02*
X130912857Y-117447200D01*
X130912857Y-117447200D02*
X130770000Y-117494819D01*
X130770000Y-117494819D02*
X130531905Y-117494819D01*
X131579524Y-117494819D02*
X131770000Y-117494819D01*
X131770000Y-117494819D02*
X131865238Y-117447200D01*
X131865238Y-117447200D02*
X131912857Y-117399580D01*
X131912857Y-117399580D02*
X132008095Y-117256723D01*
X132008095Y-117256723D02*
X132055714Y-117066247D01*
X132055714Y-117066247D02*
X132055714Y-116685295D01*
X132055714Y-116685295D02*
X132008095Y-116590057D01*
X132008095Y-116590057D02*
X131960476Y-116542438D01*
X131960476Y-116542438D02*
X131865238Y-116494819D01*
X131865238Y-116494819D02*
X131674762Y-116494819D01*
X131674762Y-116494819D02*
X131579524Y-116542438D01*
X131579524Y-116542438D02*
X131531905Y-116590057D01*
X131531905Y-116590057D02*
X131484286Y-116685295D01*
X131484286Y-116685295D02*
X131484286Y-116923390D01*
X131484286Y-116923390D02*
X131531905Y-117018628D01*
X131531905Y-117018628D02*
X131579524Y-117066247D01*
X131579524Y-117066247D02*
X131674762Y-117113866D01*
X131674762Y-117113866D02*
X131865238Y-117113866D01*
X131865238Y-117113866D02*
X131960476Y-117066247D01*
X131960476Y-117066247D02*
X132008095Y-117018628D01*
X132008095Y-117018628D02*
X132055714Y-116923390D01*
X151857142Y-128084819D02*
X151523809Y-127608628D01*
X151285714Y-128084819D02*
X151285714Y-127084819D01*
X151285714Y-127084819D02*
X151666666Y-127084819D01*
X151666666Y-127084819D02*
X151761904Y-127132438D01*
X151761904Y-127132438D02*
X151809523Y-127180057D01*
X151809523Y-127180057D02*
X151857142Y-127275295D01*
X151857142Y-127275295D02*
X151857142Y-127418152D01*
X151857142Y-127418152D02*
X151809523Y-127513390D01*
X151809523Y-127513390D02*
X151761904Y-127561009D01*
X151761904Y-127561009D02*
X151666666Y-127608628D01*
X151666666Y-127608628D02*
X151285714Y-127608628D01*
X152238095Y-127180057D02*
X152285714Y-127132438D01*
X152285714Y-127132438D02*
X152380952Y-127084819D01*
X152380952Y-127084819D02*
X152619047Y-127084819D01*
X152619047Y-127084819D02*
X152714285Y-127132438D01*
X152714285Y-127132438D02*
X152761904Y-127180057D01*
X152761904Y-127180057D02*
X152809523Y-127275295D01*
X152809523Y-127275295D02*
X152809523Y-127370533D01*
X152809523Y-127370533D02*
X152761904Y-127513390D01*
X152761904Y-127513390D02*
X152190476Y-128084819D01*
X152190476Y-128084819D02*
X152809523Y-128084819D01*
X153666666Y-127418152D02*
X153666666Y-128084819D01*
X153428571Y-127037200D02*
X153190476Y-127751485D01*
X153190476Y-127751485D02*
X153809523Y-127751485D01*
X160531905Y-75494819D02*
X160531905Y-74494819D01*
X160531905Y-74494819D02*
X160770000Y-74494819D01*
X160770000Y-74494819D02*
X160912857Y-74542438D01*
X160912857Y-74542438D02*
X161008095Y-74637676D01*
X161008095Y-74637676D02*
X161055714Y-74732914D01*
X161055714Y-74732914D02*
X161103333Y-74923390D01*
X161103333Y-74923390D02*
X161103333Y-75066247D01*
X161103333Y-75066247D02*
X161055714Y-75256723D01*
X161055714Y-75256723D02*
X161008095Y-75351961D01*
X161008095Y-75351961D02*
X160912857Y-75447200D01*
X160912857Y-75447200D02*
X160770000Y-75494819D01*
X160770000Y-75494819D02*
X160531905Y-75494819D01*
X161436667Y-74494819D02*
X162103333Y-74494819D01*
X162103333Y-74494819D02*
X161674762Y-75494819D01*
%TO.C,D11*%
D14*
X168710000Y-119455000D02*
X168710000Y-122545000D01*
X168710000Y-119455170D02*
G75*
G02*
X174260000Y-121000000I2560000J-1544830D01*
G01*
X174260000Y-121000000D02*
G75*
G02*
X168710000Y-122544830I-2990000J0D01*
G01*
X173770000Y-121000000D02*
G75*
G02*
X168770000Y-121000000I-2500000J0D01*
G01*
X168770000Y-121000000D02*
G75*
G02*
X173770000Y-121000000I2500000J0D01*
G01*
%TO.C,D1*%
X129710000Y-70455000D02*
X129710000Y-73545000D01*
X129710000Y-70455170D02*
G75*
G02*
X135260000Y-72000000I2560000J-1544830D01*
G01*
X135260000Y-72000000D02*
G75*
G02*
X129710000Y-73544830I-2990000J0D01*
G01*
X134770000Y-72000000D02*
G75*
G02*
X129770000Y-72000000I-2500000J0D01*
G01*
X129770000Y-72000000D02*
G75*
G02*
X134770000Y-72000000I2500000J0D01*
G01*
%TO.C,D2*%
X116710000Y-83455000D02*
X116710000Y-86545000D01*
X116710000Y-83455170D02*
G75*
G02*
X122260000Y-85000000I2560000J-1544830D01*
G01*
X122260000Y-85000000D02*
G75*
G02*
X116710000Y-86544830I-2990000J0D01*
G01*
X121770000Y-85000000D02*
G75*
G02*
X116770000Y-85000000I-2500000J0D01*
G01*
X116770000Y-85000000D02*
G75*
G02*
X121770000Y-85000000I2500000J0D01*
G01*
%TO.C,C1*%
X151380000Y-83630000D02*
X156620000Y-83630000D01*
X151380000Y-83967000D02*
X151380000Y-83630000D01*
X151380000Y-86370000D02*
X151380000Y-86033000D01*
X156620000Y-83630000D02*
X156620000Y-83967000D01*
X156620000Y-86033000D02*
X156620000Y-86370000D01*
X156620000Y-86370000D02*
X151380000Y-86370000D01*
%TO.C,C3*%
X148445225Y-117525000D02*
X148945225Y-117525000D01*
X148695225Y-117275000D02*
X148695225Y-117775000D01*
X151250000Y-116420000D02*
X151250000Y-121580000D01*
X151290000Y-116420000D02*
X151290000Y-121580000D01*
X151330000Y-116421000D02*
X151330000Y-121579000D01*
X151370000Y-116423000D02*
X151370000Y-121577000D01*
X151410000Y-116425000D02*
X151410000Y-121575000D01*
X151450000Y-116428000D02*
X151450000Y-121572000D01*
X151490000Y-116431000D02*
X151490000Y-117960000D01*
X151490000Y-120040000D02*
X151490000Y-121569000D01*
X151530000Y-116435000D02*
X151530000Y-117960000D01*
X151530000Y-120040000D02*
X151530000Y-121565000D01*
X151570000Y-116440000D02*
X151570000Y-117960000D01*
X151570000Y-120040000D02*
X151570000Y-121560000D01*
X151610000Y-116445000D02*
X151610000Y-117960000D01*
X151610000Y-120040000D02*
X151610000Y-121555000D01*
X151650000Y-116451000D02*
X151650000Y-117960000D01*
X151650000Y-120040000D02*
X151650000Y-121549000D01*
X151690000Y-116457000D02*
X151690000Y-117960000D01*
X151690000Y-120040000D02*
X151690000Y-121543000D01*
X151730000Y-116464000D02*
X151730000Y-117960000D01*
X151730000Y-120040000D02*
X151730000Y-121536000D01*
X151770000Y-116472000D02*
X151770000Y-117960000D01*
X151770000Y-120040000D02*
X151770000Y-121528000D01*
X151810000Y-116481000D02*
X151810000Y-117960000D01*
X151810000Y-120040000D02*
X151810000Y-121519000D01*
X151850000Y-116490000D02*
X151850000Y-117960000D01*
X151850000Y-120040000D02*
X151850000Y-121510000D01*
X151890000Y-116499000D02*
X151890000Y-117960000D01*
X151890000Y-120040000D02*
X151890000Y-121501000D01*
X151930000Y-116510000D02*
X151930000Y-117960000D01*
X151930000Y-120040000D02*
X151930000Y-121490000D01*
X151970000Y-116521000D02*
X151970000Y-117960000D01*
X151970000Y-120040000D02*
X151970000Y-121479000D01*
X152010000Y-116533000D02*
X152010000Y-117960000D01*
X152010000Y-120040000D02*
X152010000Y-121467000D01*
X152050000Y-116545000D02*
X152050000Y-117960000D01*
X152050000Y-120040000D02*
X152050000Y-121455000D01*
X152090000Y-116558000D02*
X152090000Y-117960000D01*
X152090000Y-120040000D02*
X152090000Y-121442000D01*
X152130000Y-116572000D02*
X152130000Y-117960000D01*
X152130000Y-120040000D02*
X152130000Y-121428000D01*
X152170000Y-116587000D02*
X152170000Y-117960000D01*
X152170000Y-120040000D02*
X152170000Y-121413000D01*
X152210000Y-116602000D02*
X152210000Y-117960000D01*
X152210000Y-120040000D02*
X152210000Y-121398000D01*
X152250000Y-116618000D02*
X152250000Y-117960000D01*
X152250000Y-120040000D02*
X152250000Y-121382000D01*
X152290000Y-116635000D02*
X152290000Y-117960000D01*
X152290000Y-120040000D02*
X152290000Y-121365000D01*
X152330000Y-116653000D02*
X152330000Y-117960000D01*
X152330000Y-120040000D02*
X152330000Y-121347000D01*
X152370000Y-116671000D02*
X152370000Y-117960000D01*
X152370000Y-120040000D02*
X152370000Y-121329000D01*
X152410000Y-116691000D02*
X152410000Y-117960000D01*
X152410000Y-120040000D02*
X152410000Y-121309000D01*
X152450000Y-116711000D02*
X152450000Y-117960000D01*
X152450000Y-120040000D02*
X152450000Y-121289000D01*
X152490000Y-116732000D02*
X152490000Y-117960000D01*
X152490000Y-120040000D02*
X152490000Y-121268000D01*
X152530000Y-116754000D02*
X152530000Y-117960000D01*
X152530000Y-120040000D02*
X152530000Y-121246000D01*
X152570000Y-116777000D02*
X152570000Y-117960000D01*
X152570000Y-120040000D02*
X152570000Y-121223000D01*
X152610000Y-116801000D02*
X152610000Y-117960000D01*
X152610000Y-120040000D02*
X152610000Y-121199000D01*
X152650000Y-116825000D02*
X152650000Y-117960000D01*
X152650000Y-120040000D02*
X152650000Y-121175000D01*
X152690000Y-116851000D02*
X152690000Y-117960000D01*
X152690000Y-120040000D02*
X152690000Y-121149000D01*
X152730000Y-116878000D02*
X152730000Y-117960000D01*
X152730000Y-120040000D02*
X152730000Y-121122000D01*
X152770000Y-116906000D02*
X152770000Y-117960000D01*
X152770000Y-120040000D02*
X152770000Y-121094000D01*
X152810000Y-116935000D02*
X152810000Y-117960000D01*
X152810000Y-120040000D02*
X152810000Y-121065000D01*
X152850000Y-116965000D02*
X152850000Y-117960000D01*
X152850000Y-120040000D02*
X152850000Y-121035000D01*
X152890000Y-116997000D02*
X152890000Y-117960000D01*
X152890000Y-120040000D02*
X152890000Y-121003000D01*
X152930000Y-117030000D02*
X152930000Y-117960000D01*
X152930000Y-120040000D02*
X152930000Y-120970000D01*
X152970000Y-117064000D02*
X152970000Y-117960000D01*
X152970000Y-120040000D02*
X152970000Y-120936000D01*
X153010000Y-117099000D02*
X153010000Y-117960000D01*
X153010000Y-120040000D02*
X153010000Y-120901000D01*
X153050000Y-117136000D02*
X153050000Y-117960000D01*
X153050000Y-120040000D02*
X153050000Y-120864000D01*
X153090000Y-117175000D02*
X153090000Y-117960000D01*
X153090000Y-120040000D02*
X153090000Y-120825000D01*
X153130000Y-117215000D02*
X153130000Y-117960000D01*
X153130000Y-120040000D02*
X153130000Y-120785000D01*
X153170000Y-117257000D02*
X153170000Y-117960000D01*
X153170000Y-120040000D02*
X153170000Y-120743000D01*
X153210000Y-117301000D02*
X153210000Y-117960000D01*
X153210000Y-120040000D02*
X153210000Y-120699000D01*
X153250000Y-117348000D02*
X153250000Y-117960000D01*
X153250000Y-120040000D02*
X153250000Y-120652000D01*
X153290000Y-117396000D02*
X153290000Y-117960000D01*
X153290000Y-120040000D02*
X153290000Y-120604000D01*
X153330000Y-117447000D02*
X153330000Y-117960000D01*
X153330000Y-120040000D02*
X153330000Y-120553000D01*
X153370000Y-117501000D02*
X153370000Y-117960000D01*
X153370000Y-120040000D02*
X153370000Y-120499000D01*
X153410000Y-117557000D02*
X153410000Y-117960000D01*
X153410000Y-120040000D02*
X153410000Y-120443000D01*
X153450000Y-117617000D02*
X153450000Y-117960000D01*
X153450000Y-120040000D02*
X153450000Y-120383000D01*
X153490000Y-117681000D02*
X153490000Y-117960000D01*
X153490000Y-120040000D02*
X153490000Y-120319000D01*
X153530000Y-117749000D02*
X153530000Y-117960000D01*
X153530000Y-120040000D02*
X153530000Y-120251000D01*
X153570000Y-117823000D02*
X153570000Y-120177000D01*
X153610000Y-117902000D02*
X153610000Y-120098000D01*
X153650000Y-117989000D02*
X153650000Y-120011000D01*
X153690000Y-118086000D02*
X153690000Y-119914000D01*
X153730000Y-118195000D02*
X153730000Y-119805000D01*
X153770000Y-118323000D02*
X153770000Y-119677000D01*
X153810000Y-118483000D02*
X153810000Y-119517000D01*
X153850000Y-118717000D02*
X153850000Y-119283000D01*
X153870000Y-119000000D02*
G75*
G02*
X148630000Y-119000000I-2620000J0D01*
G01*
X148630000Y-119000000D02*
G75*
G02*
X153870000Y-119000000I2620000J0D01*
G01*
%TO.C,D5*%
X167710000Y-70455000D02*
X167710000Y-73545000D01*
X167710000Y-70455170D02*
G75*
G02*
X173260000Y-72000000I2560000J-1544830D01*
G01*
X173260000Y-72000000D02*
G75*
G02*
X167710000Y-73544830I-2990000J0D01*
G01*
X172770000Y-72000000D02*
G75*
G02*
X167770000Y-72000000I-2500000J0D01*
G01*
X167770000Y-72000000D02*
G75*
G02*
X172770000Y-72000000I2500000J0D01*
G01*
%TO.C,D6*%
X180710000Y-83455000D02*
X180710000Y-86545000D01*
X180710000Y-83455170D02*
G75*
G02*
X186260000Y-85000000I2560000J-1544830D01*
G01*
X186260000Y-85000000D02*
G75*
G02*
X180710000Y-86544830I-2990000J0D01*
G01*
X185770000Y-85000000D02*
G75*
G02*
X180770000Y-85000000I-2500000J0D01*
G01*
X180770000Y-85000000D02*
G75*
G02*
X185770000Y-85000000I2500000J0D01*
G01*
%TO.C,R21*%
X158730000Y-121130000D02*
X165270000Y-121130000D01*
X158730000Y-121460000D02*
X158730000Y-121130000D01*
X158730000Y-123540000D02*
X158730000Y-123870000D01*
X158730000Y-123870000D02*
X165270000Y-123870000D01*
X165270000Y-121130000D02*
X165270000Y-121460000D01*
X165270000Y-123870000D02*
X165270000Y-123540000D01*
%TO.C,D14*%
X159710000Y-129455000D02*
X159710000Y-132545000D01*
X159710000Y-129455170D02*
G75*
G02*
X165260000Y-131000000I2560000J-1544830D01*
G01*
X165260000Y-131000000D02*
G75*
G02*
X159710000Y-132544830I-2990000J0D01*
G01*
X164770000Y-131000000D02*
G75*
G02*
X159770000Y-131000000I-2500000J0D01*
G01*
X159770000Y-131000000D02*
G75*
G02*
X164770000Y-131000000I2500000J0D01*
G01*
%TO.C,D10*%
X186710000Y-95455000D02*
X186710000Y-98545000D01*
X186710000Y-95455170D02*
G75*
G02*
X192260000Y-97000000I2560000J-1544830D01*
G01*
X192260000Y-97000000D02*
G75*
G02*
X186710000Y-98544830I-2990000J0D01*
G01*
X191770000Y-97000000D02*
G75*
G02*
X186770000Y-97000000I-2500000J0D01*
G01*
X186770000Y-97000000D02*
G75*
G02*
X191770000Y-97000000I2500000J0D01*
G01*
%TO.C,D13*%
X137710000Y-129455000D02*
X137710000Y-132545000D01*
X137710000Y-129455170D02*
G75*
G02*
X143260000Y-131000000I2560000J-1544830D01*
G01*
X143260000Y-131000000D02*
G75*
G02*
X137710000Y-132544830I-2990000J0D01*
G01*
X142770000Y-131000000D02*
G75*
G02*
X137770000Y-131000000I-2500000J0D01*
G01*
X137770000Y-131000000D02*
G75*
G02*
X142770000Y-131000000I2500000J0D01*
G01*
%TO.C,D3*%
X138710000Y-77455000D02*
X138710000Y-80545000D01*
X138710000Y-77455170D02*
G75*
G02*
X144260000Y-79000000I2560000J-1544830D01*
G01*
X144260000Y-79000000D02*
G75*
G02*
X138710000Y-80544830I-2990000J0D01*
G01*
X143770000Y-79000000D02*
G75*
G02*
X138770000Y-79000000I-2500000J0D01*
G01*
X138770000Y-79000000D02*
G75*
G02*
X143770000Y-79000000I2500000J0D01*
G01*
%TO.C,U1*%
X131040000Y-103550000D02*
X131040000Y-113830000D01*
X131040000Y-113830000D02*
X136340000Y-113830000D01*
X132690000Y-103550000D02*
X131040000Y-103550000D01*
X136340000Y-103550000D02*
X134690000Y-103550000D01*
X136340000Y-113830000D02*
X136340000Y-103550000D01*
X134690000Y-103550000D02*
G75*
G02*
X132690000Y-103550000I-1000000J0D01*
G01*
%TO.C,D15*%
X148710000Y-136455000D02*
X148710000Y-139545000D01*
X148710000Y-136455170D02*
G75*
G02*
X154260000Y-138000000I2560000J-1544830D01*
G01*
X154260000Y-138000000D02*
G75*
G02*
X148710000Y-139544830I-2990000J0D01*
G01*
X153770000Y-138000000D02*
G75*
G02*
X148770000Y-138000000I-2500000J0D01*
G01*
X148770000Y-138000000D02*
G75*
G02*
X153770000Y-138000000I2500000J0D01*
G01*
%TO.C,Q1*%
X166470000Y-106850000D02*
X170070000Y-106850000D01*
X166431522Y-106838478D02*
G75*
G02*
X168270000Y-102399999I1838478J1838478D01*
G01*
X168270000Y-102400000D02*
G75*
G02*
X170108478Y-106838478I0J-2600000D01*
G01*
%TO.C,D8*%
X110710000Y-95455000D02*
X110710000Y-98545000D01*
X110710000Y-95455170D02*
G75*
G02*
X116260000Y-97000000I2560000J-1544830D01*
G01*
X116260000Y-97000000D02*
G75*
G02*
X110710000Y-98544830I-2990000J0D01*
G01*
X115770000Y-97000000D02*
G75*
G02*
X110770000Y-97000000I-2500000J0D01*
G01*
X110770000Y-97000000D02*
G75*
G02*
X115770000Y-97000000I2500000J0D01*
G01*
%TO.C,R23*%
X137420000Y-122630000D02*
X143960000Y-122630000D01*
X137420000Y-122960000D02*
X137420000Y-122630000D01*
X137420000Y-125040000D02*
X137420000Y-125370000D01*
X137420000Y-125370000D02*
X143960000Y-125370000D01*
X143960000Y-122630000D02*
X143960000Y-122960000D01*
X143960000Y-125370000D02*
X143960000Y-125040000D01*
%TO.C,D9*%
X128710000Y-119455000D02*
X128710000Y-122545000D01*
X128710000Y-119455170D02*
G75*
G02*
X134260000Y-121000000I2560000J-1544830D01*
G01*
X134260000Y-121000000D02*
G75*
G02*
X128710000Y-122544830I-2990000J0D01*
G01*
X133770000Y-121000000D02*
G75*
G02*
X128770000Y-121000000I-2500000J0D01*
G01*
X128770000Y-121000000D02*
G75*
G02*
X133770000Y-121000000I2500000J0D01*
G01*
%TO.C,R24*%
X149230000Y-128630000D02*
X155770000Y-128630000D01*
X149230000Y-128960000D02*
X149230000Y-128630000D01*
X149230000Y-131040000D02*
X149230000Y-131370000D01*
X149230000Y-131370000D02*
X155770000Y-131370000D01*
X155770000Y-128630000D02*
X155770000Y-128960000D01*
X155770000Y-131370000D02*
X155770000Y-131040000D01*
%TO.C,D7*%
X158710000Y-77455000D02*
X158710000Y-80545000D01*
X158710000Y-77455170D02*
G75*
G02*
X164260000Y-79000000I2560000J-1544830D01*
G01*
X164260000Y-79000000D02*
G75*
G02*
X158710000Y-80544830I-2990000J0D01*
G01*
X163770000Y-79000000D02*
G75*
G02*
X158770000Y-79000000I-2500000J0D01*
G01*
X158770000Y-79000000D02*
G75*
G02*
X163770000Y-79000000I2500000J0D01*
G01*
%TD*%
M02*
