M48
; DRILL file KiCad 10.0.4 date 2026-07-03T11:55:27
; FORMAT={-:-/ absolute / metric / decimal}
; #@! TF.CreationDate,2026-07-03T11:55:27-04:00
; #@! TF.GenerationSoftware,Kicad,Pcbnew,10.0.4
; #@! TF.FileFunction,Plated,1,2,PTH
FMAT,2
METRIC
; #@! TA.AperFunction,Plated,PTH,ViaDrill
T1C0.300
; #@! TA.AperFunction,Plated,PTH,ComponentDrill
T2C0.750
; #@! TA.AperFunction,Plated,PTH,ComponentDrill
T3C0.800
; #@! TA.AperFunction,Plated,PTH,ComponentDrill
T4C0.900
; #@! TA.AperFunction,Plated,PTH,ComponentDrill
T5C1.500
%
G90
G05
T1
X145.0Y-108.0
X150.0Y-88.5
X152.5Y-88.5
X154.0Y-109.0
X158.0Y-106.0
X168.5Y-115.5
X186.0Y-97.0
T2
X167.0Y-105.0
X168.27Y-105.0
X169.54Y-105.0
T3
X105.5Y-85.0
X113.12Y-85.0
X117.5Y-117.0
X118.5Y-72.0
X119.5Y-95.0
X122.5Y-102.1
X122.5Y-104.1
X122.5Y-106.1
X125.12Y-117.0
X126.12Y-72.0
X127.12Y-95.0
X128.5Y-82.0
X129.88Y-104.88
X129.88Y-107.42
X129.88Y-109.96
X129.88Y-112.5
X136.12Y-82.0
X136.88Y-124.0
X137.5Y-104.88
X137.5Y-107.42
X137.5Y-109.96
X137.5Y-112.5
X141.69Y-112.5
X144.5Y-124.0
X145.0Y-144.5
X148.69Y-130.0
X149.31Y-112.5
X150.0Y-119.0
X151.5Y-85.0
X152.5Y-119.0
X152.62Y-144.5
X156.31Y-130.0
X156.5Y-85.0
X158.0Y-113.0
X158.19Y-122.5
X165.62Y-113.0
X165.81Y-122.5
X174.88Y-114.5
X175.69Y-97.0
X177.0Y-71.5
X177.19Y-108.5
X182.5Y-114.5
X183.31Y-97.0
X184.62Y-71.5
X184.81Y-108.5
X189.0Y-85.0
X196.62Y-85.0
T4
X112.0Y-97.0
X114.54Y-97.0
X118.0Y-85.0
X120.54Y-85.0
X130.0Y-121.0
X131.0Y-72.0
X132.54Y-121.0
X133.54Y-72.0
X139.0Y-131.0
X140.0Y-79.0
X141.54Y-131.0
X142.54Y-79.0
X150.0Y-138.0
X152.54Y-138.0
X160.0Y-79.0
X161.0Y-131.0
X162.54Y-79.0
X163.54Y-131.0
X169.0Y-72.0
X170.0Y-121.0
X171.54Y-72.0
X172.54Y-121.0
X182.0Y-85.0
X184.54Y-85.0
X188.0Y-97.0
X190.54Y-97.0
T5
X122.5Y-100.0
X122.5Y-108.2
M30
